<?xml version="1.0" encoding="UTF-8" standalone="no"?>
<!DOCTYPE svg PUBLIC "-//W3C//DTD SVG 1.1//EN" "http://www.w3.org/Graphics/SVG/1.1/DTD/svg11.dtd">
<svg width="100%" height="100%" viewBox="0 0 259 257" version="1.1" xmlns="http://www.w3.org/2000/svg" xmlns:xlink="http://www.w3.org/1999/xlink" xml:space="preserve" xmlns:serif="http://www.serif.com/" style="fill-rule:evenodd;clip-rule:evenodd;stroke-linejoin:round;stroke-miterlimit:2;">
    <g transform="matrix(1,0,0,1,-346.353,-2875.56)">
        <g transform="matrix(1,0,0,1,0,2160)">
            <g transform="matrix(1.74224,0,0,1.74224,-158.009,-879.952)">
                <g transform="matrix(0.995258,0,0,0.986103,-19.834,-2139.09)">
                    <circle cx="385.335" cy="3172.46" r="74.536" style="fill:rgb(170,49,77);"/>
                </g>
                <g transform="matrix(1,0,0,1,0,-2160)">
                    <path d="M336.799,3113.13C339.564,3111.31 342.846,3109.51 346.353,3108.56C349.943,3107.59 354.435,3106.92 358.339,3107.31C362.243,3107.7 366.367,3108.79 369.776,3110.22C373.051,3111.6 376.136,3113.86 378.797,3115.89C381.318,3117.81 383.961,3120.1 385.74,3122.39C387.408,3124.54 388.434,3127.23 389.472,3129.65C390.48,3132 391.647,3134.36 391.969,3136.9C392.386,3140.17 392.209,3146.18 391.969,3149.28C391.806,3151.4 391.109,3153.48 390.533,3155.48C389.964,3157.45 389.101,3159.58 388.509,3161.3C387.994,3162.79 387.236,3164.25 386.981,3165.79C386.727,3167.33 386.566,3169.17 386.981,3170.54C387.394,3171.9 388.272,3173.24 389.474,3174C390.697,3174.77 392.705,3175.08 394.318,3175.15C395.931,3175.23 397.905,3175.37 399.151,3174.46C400.397,3173.55 401.529,3171.47 401.794,3169.7C402.059,3167.93 401.369,3165.09 400.744,3163.83C400.272,3162.88 398.991,3162.62 398.045,3162.13C396.891,3161.54 393.709,3161.03 393.815,3160.27C393.92,3159.52 396.848,3157.87 398.678,3157.6C400.518,3157.32 403.313,3157.84 404.854,3158.63C406.282,3159.36 407.266,3161.17 407.922,3162.34C408.481,3163.34 408.616,3164.68 408.789,3165.67C408.94,3166.54 408.248,3167.79 408.962,3168.3C409.964,3169.01 413.39,3169.07 414.8,3169.97C416.077,3170.78 416.968,3172.3 417.422,3173.67C417.875,3175.04 417.877,3176.72 417.521,3178.19C417.117,3179.85 415.694,3183.5 414.999,3183.64C414.304,3183.79 414.147,3180.38 413.352,3179.04C412.563,3177.71 411.518,3176.32 410.229,3175.6C408.94,3174.88 407.047,3174.57 405.617,3174.73C404.186,3174.89 402.847,3175.72 401.648,3176.55C400.239,3177.51 398.765,3179.33 397.163,3180.53C395.35,3181.89 393.042,3183.54 390.768,3184.68C387.885,3186.11 383.663,3188.15 379.865,3189.15C376,3190.17 371.334,3190.67 367.579,3190.79C364.15,3190.89 360.674,3190.61 357.331,3189.84C353.794,3189.02 349.425,3187.43 346.353,3185.89C343.632,3184.53 340.893,3183.05 338.506,3181.17C335.969,3179.16 333.237,3176.16 331.127,3173.87C329.205,3171.79 327.668,3169.28 326.242,3166.91C324.844,3164.58 323.536,3162.18 322.572,3159.64C321.455,3156.7 319.895,3152.86 319.541,3149.28C319.116,3144.98 319.564,3138.26 320.454,3134.12C321.194,3130.68 323.255,3126.98 324.879,3124.47C326.236,3122.37 327.952,3120.51 329.763,3118.78C331.75,3116.89 334.284,3114.78 336.799,3113.13Z" style="fill:white;"/>
                </g>
            </g>
        </g>
    </g>
</svg>
