<?xml version="1.0" encoding="UTF-8" standalone="no"?>
<!DOCTYPE svg PUBLIC "-//W3C//DTD SVG 1.1//EN" "http://www.w3.org/Graphics/SVG/1.1/DTD/svg11.dtd">
<svg width="100%" height="100%" viewBox="0 0 235 292" version="1.1" xmlns="http://www.w3.org/2000/svg" xmlns:xlink="http://www.w3.org/1999/xlink" xml:space="preserve" xmlns:serif="http://www.serif.com/" style="fill-rule:evenodd;clip-rule:evenodd;stroke-linejoin:round;stroke-miterlimit:2;">
    <g transform="matrix(1,0,0,1,-358.386,-2824.11)">
        <g transform="matrix(1,0,0,1,0,2160)">
            <g transform="matrix(3.23569,0,0,3.23569,301.202,664.112)">
                <path d="M60.97,47.644C59.476,47.664 61.251,48.412 63.202,48.713C63.743,48.291 64.229,47.867 64.665,47.453C63.452,47.75 62.216,47.757 60.97,47.644" style="fill:rgb(215,7,81);fill-rule:nonzero;"/>
                <path d="M68.987,45.645C69.88,44.416 70.528,43.072 70.757,41.682C70.556,42.672 70.021,43.527 69.513,44.431C66.72,46.19 69.249,43.387 69.511,42.32C66.509,46.103 69.097,44.588 68.987,45.645" style="fill:rgb(215,7,81);fill-rule:nonzero;"/>
                <path d="M71.95,37.941C72.132,35.25 71.421,36.102 71.182,37.127C71.46,37.273 71.681,39.025 71.95,37.941" style="fill:rgb(215,7,81);fill-rule:nonzero;"/>
                <path d="M55.302,1.163C56.1,1.305 57.026,1.415 56.893,1.606C57.769,1.413 57.966,1.239 55.302,1.163" style="fill:rgb(215,7,81);fill-rule:nonzero;"/>
                <path d="M56.894,1.606L56.333,1.723L56.856,1.675L56.894,1.606" style="fill:rgb(215,7,81);fill-rule:nonzero;"/>
                <path d="M81.762,38.961C81.852,41.377 81.057,42.551 80.338,44.627L79.045,45.27C77.989,47.324 79.15,46.574 78.394,48.207C76.742,49.674 73.388,52.796 72.314,53.082C71.529,53.065 72.845,52.156 73.017,51.801C70.808,53.317 71.244,54.077 67.865,55L67.767,54.779C59.437,58.699 47.865,50.932 48.017,40.336C47.929,41.008 47.764,40.84 47.58,41.11C47.15,35.659 50.098,30.184 55.07,27.945C59.933,25.539 65.634,26.525 69.115,29.774C67.203,27.268 63.394,24.611 58.883,24.857C54.462,24.929 50.325,27.738 48.945,30.789C46.681,32.214 46.417,36.285 45.431,37.031C44.102,46.791 47.928,51.006 54.401,55.967C55.417,56.653 54.687,56.758 54.823,57.28C52.673,56.274 50.705,54.754 49.085,52.893C49.945,54.15 50.872,55.372 52.071,56.332C50.042,55.647 47.333,51.419 46.544,51.247C50.039,57.505 60.722,62.222 66.319,59.881C63.729,59.977 60.44,59.934 57.532,58.859C56.307,58.23 54.648,56.929 54.945,56.686C62.581,59.537 70.467,58.844 77.073,53.549C78.754,52.239 80.59,50.012 81.121,49.982C80.322,51.184 81.258,50.56 80.644,51.621C82.316,48.92 79.915,50.521 82.374,46.957L83.282,48.207C82.942,45.963 86.067,43.241 85.749,39.695C86.466,38.611 86.548,40.863 85.788,43.357C86.843,40.59 86.067,40.145 86.337,37.861C86.628,38.629 87.015,39.444 87.212,40.255C86.524,37.58 87.915,35.752 88.261,34.197C87.919,34.047 87.2,35.379 87.034,32.221C87.059,30.849 87.417,31.502 87.554,31.164C87.286,31.009 86.579,29.957 86.15,27.94C86.459,27.465 86.982,29.169 87.406,29.238C87.133,27.635 86.664,26.412 86.644,25.181C85.404,22.592 86.205,25.527 85.201,24.069C83.881,19.956 86.295,23.115 86.459,21.247C88.457,24.141 89.596,28.631 90.121,30.49C89.721,28.223 89.076,26.026 88.287,23.902C88.896,24.158 87.308,19.239 89.078,22.497C87.189,15.552 81,9.062 75.306,6.018C76.001,6.655 76.88,7.455 76.566,7.581C73.732,5.896 74.23,5.763 73.824,5.051C71.519,4.112 71.365,5.128 69.84,5.053C65.49,2.745 64.652,2.99 60.649,1.546L60.831,2.398C57.95,1.438 57.474,2.76 54.361,2.4C54.172,2.253 55.359,1.864 56.337,1.723C53.551,2.091 53.681,1.173 50.955,1.824C51.626,1.353 52.338,1.04 53.054,0.64C50.783,0.778 47.63,1.962 48.603,0.884C44.898,2.538 38.317,4.859 34.624,8.322L34.508,7.546C32.816,9.577 27.13,13.612 26.677,16.245L26.224,16.35C25.345,17.841 24.774,19.53 24.076,21.063C22.925,23.026 22.388,21.819 22.552,22.127C20.287,26.718 19.16,30.576 18.189,33.742C18.881,34.777 18.206,39.974 18.467,44.133C17.331,64.677 32.884,84.621 49.886,89.225C52.378,90.118 56.083,90.086 59.235,90.174C55.517,89.11 55.037,89.611 51.413,88.348C48.8,87.116 48.228,85.711 46.376,84.104L47.109,85.399C43.479,84.114 44.998,83.809 42.044,82.874L42.827,81.853C41.65,81.763 39.71,79.871 39.18,78.82L37.892,78.871C36.346,76.965 35.521,75.588 35.582,74.521L35.166,75.263C34.695,74.454 29.476,68.106 32.183,69.584C31.68,69.126 31.011,68.837 30.287,67.518L30.837,66.889C29.537,65.212 28.44,63.063 28.524,62.347C29.219,63.285 29.701,63.461 30.179,63.622C26.888,55.458 26.703,63.173 24.212,55.312L24.738,55.27C24.335,54.659 24.088,54 23.764,53.351L23.994,51.066C21.626,48.33 23.332,39.421 23.675,34.536C23.91,32.55 25.652,30.435 26.975,27.118L26.169,26.98C27.711,24.292 34.97,16.182 38.334,16.598C39.963,14.552 38.01,16.59 37.691,16.076C41.27,12.373 42.395,13.46 44.81,12.793C47.413,11.248 42.575,13.397 43.809,12.204C48.312,11.055 46.999,9.59 52.872,9.007C53.492,9.359 51.435,9.551 50.919,10.008C54.669,8.172 62.788,8.591 68.064,11.026C74.181,13.887 81.057,22.34 81.329,30.292L81.638,30.375C81.482,33.537 82.122,37.194 81.011,40.552L81.762,38.961" style="fill:rgb(215,7,81);fill-rule:nonzero;"/>
                <path d="M44.659,49.694L44.448,50.741C45.431,52.076 46.211,53.522 47.464,54.562C46.562,52.803 45.893,52.076 44.659,49.694" style="fill:rgb(215,7,81);fill-rule:nonzero;"/>
                <path d="M46.98,49.604C46.46,49.028 46.154,48.336 45.808,47.648C46.138,48.859 46.814,49.9 47.441,50.96L46.98,49.604" style="fill:rgb(215,7,81);fill-rule:nonzero;"/>
                <path d="M88.063,40.674L87.844,41.226C87.442,44.084 86.571,46.912 85.239,49.535C86.711,46.768 87.66,43.741 88.063,40.674" style="fill:rgb(215,7,81);fill-rule:nonzero;"/>
                <path d="M55.599,0.446C56.608,0.077 58.081,0.243 59.155,0C57.757,0.117 56.366,0.187 54.993,0.362L55.599,0.446" style="fill:rgb(215,7,81);fill-rule:nonzero;"/>
                <path d="M20.129,19.308C20.362,21.462 18.509,22.299 20.539,20.877C21.629,18.423 20.115,20.2 20.129,19.308" style="fill:rgb(215,7,81);fill-rule:nonzero;"/>
                <path d="M17.741,29.281C18.21,27.844 18.294,26.982 18.473,26.149C17.18,27.803 17.877,28.156 17.741,29.281" style="fill:rgb(215,7,81);fill-rule:nonzero;"/>
            </g>
        </g>
    </g>
</svg>
