<?xml version="1.0" encoding="UTF-8" standalone="no"?>
<!DOCTYPE svg PUBLIC "-//W3C//DTD SVG 1.1//EN" "http://www.w3.org/Graphics/SVG/1.1/DTD/svg11.dtd">
<svg width="100%" height="100%" viewBox="0 0 266 237" version="1.1" xmlns="http://www.w3.org/2000/svg" xmlns:xlink="http://www.w3.org/1999/xlink" xml:space="preserve" xmlns:serif="http://www.serif.com/" style="fill-rule:evenodd;clip-rule:evenodd;stroke-linejoin:round;stroke-miterlimit:2;">
    <g transform="matrix(1,0,0,1,-604.84,-2367.79)">
        <g transform="matrix(1,0,0,1,0,2160)">
            <g id="path2900" transform="matrix(1.38718,0,0,1.38718,549.601,165.913)">
                <path d="M96.945,182.034C89.663,176.306 81.895,170.814 76.586,163.082C65.417,149.445 56.817,133.657 50.938,117.065C47.384,106.277 46.167,94.71 41.586,84.338C36.794,76.805 42.407,68.57 50.659,66.176C54.332,65.471 60.792,62.005 52.994,64.482C46.004,69.611 45.327,59.827 52.496,59.207C57.388,58.557 59.189,54.552 57.516,50.947C52.264,47.522 70.249,43.759 61.2,38.649C51.773,28.478 74.386,26.52 68.807,38.071C67.472,46.953 84.608,36.443 80.632,46.7C84.674,51.626 95.766,47.821 95.491,54.731C101.378,55.136 103.398,60.09 108.925,60.47C114.652,63.056 125.036,65.095 126.985,71.549C121.302,76.048 108.144,62.256 107.512,74.709C109.228,93.105 108.791,112.056 115.521,129.574C118.705,140.182 126.423,148.532 133.392,156.794C140.061,164.885 149.094,170.581 158.301,175.377C166.378,179.186 175.085,181.712 183.887,183.298C187.457,180.567 193.76,170.415 199.33,174.696C199.594,179.506 188.275,184.751 198.797,184.219C204.975,182.355 209.26,188.997 214.348,183.006C219.035,188.558 233.83,179.459 230.495,190.808C225.985,193.717 219.408,191.959 214.891,195.961C207.443,192.242 201.514,199.29 193.269,198.399C184.113,200.039 174.797,200.701 165.514,200.715C150.285,199.512 134.733,199.004 120.245,193.702C112.083,191.33 104.118,186.683 96.945,182.034ZM109.807,187.607C117.777,191.053 125.569,194.686 134.304,195.781C148.16,197.709 162.47,200.673 176.377,197.969C170.083,195.127 163.576,199.076 157.306,195.937C149.785,197.555 141.715,195.524 134.07,194.525C125.376,190.652 115.994,187.989 107.852,182.963C97.679,179.247 113.114,187.728 115.861,188.415C122.22,192.024 108.867,186.564 106.985,185.064C101.658,182.076 100.98,182.7 106.458,185.735C107.561,186.38 108.651,187.057 109.807,187.607ZM94.642,176.89C102.365,179.75 94.608,171.459 91.069,171.941C89.501,169.221 85.079,167.502 88.199,166.041C82.587,167.989 82.32,158.633 79.683,159.97C73.746,158.095 77.372,151.455 70.301,147.377C69.655,143.08 63.275,139.353 61.24,132.871C60.341,129.553 54.032,120.024 57.907,128.892C61.208,137.43 67.014,144.741 71.846,152.044C75.598,158.997 80.029,166.264 86.862,170.602C89.165,172.811 91.389,176.197 94.642,176.89ZM72.395,152.464C72.664,151.297 73.807,154.988 72.395,152.464ZM103.891,180.319C105.601,179.553 101.432,179.354 103.891,180.319ZM108.083,181.848C107.649,179.736 106.169,183.029 108.083,181.848ZM113.331,184.037C115.829,181.658 109.481,182.537 113.331,184.037ZM122.325,189.05C123.843,186.806 117.466,188.203 122.325,189.05ZM105.054,177.01C108.934,174.5 100.042,176.976 105.054,177.01ZM108.991,178.973C108.88,177.646 107.588,179.568 108.991,178.973ZM128.665,191.253C131.828,193.249 147.135,195.628 137.55,192.072C135.946,192.41 119.777,187.498 128.665,191.253ZM97.431,166.927C97.123,165.596 92.522,165.458 97.431,166.927ZM106.59,172.265C108.974,170.603 101.643,170.983 106.59,172.265ZM114.295,176.989C117.715,175.7 108.745,175.693 114.295,176.989ZM93.704,162.868C97.415,165.714 108.672,163.233 99.388,161.169C95.162,158.917 85.639,157.375 92.13,162.527L93.704,162.868L93.704,162.868ZM119.513,178.62C121.059,175.986 113.03,177.116 119.513,178.62ZM111.67,172.387C120.745,174.955 104.039,166.648 109.431,171.443L110.626,171.984L111.67,172.387L111.67,172.387ZM127.394,181.475C135.988,181.557 119.631,180.29 127.394,181.475L127.394,181.475ZM90.397,157.895C90.061,156.295 88.276,158.03 90.397,157.895ZM141.932,189.63C142.162,186.739 139.128,191.782 141.932,189.63ZM105.064,166.877C104.544,165.355 102.379,166.815 105.064,166.877ZM91.212,156.891C96.146,156.595 84.457,154.717 91.212,156.891ZM74.802,146.284C74.188,143.919 69.433,142.032 74.802,146.284ZM117.882,173.623C116.978,172.593 117.457,173.849 117.882,173.623ZM144.696,190.078C144.61,188.503 143.235,190.674 144.696,190.078ZM115.509,171.173C115.991,169.143 111.301,170.558 115.509,171.173ZM95.533,158.513C99.203,158.12 89.652,156.031 95.533,158.513ZM129.324,179.51C135.044,177.244 123.749,178.404 129.324,179.51ZM111.747,167.579C118.34,168.429 103.903,163.094 110.301,167.101L111.747,167.579L111.747,167.579ZM134.66,181.667C140.815,177.987 138.786,190.284 145.103,182.706C151.334,178.157 139.722,188.33 147.401,183.517C152.955,179.803 161.157,185.278 166.34,187.064C170.066,186.881 173.689,190.287 177.509,188.215C184.863,186.234 163.128,185.277 168.826,181.763C162.097,183.721 157.125,179.428 153.814,175.118C146.266,173.375 137.538,169.516 133.771,162.836C132.235,160.328 135.99,163.189 132.445,159.089C127.897,155.044 125.626,150.452 122.572,145.534C118.925,143.588 118.5,137.861 118.131,145.342C118.16,140.62 113.727,137.442 112.645,138.764C112.626,134.216 117.389,136.496 114.055,133.131C113.337,128.418 110.974,123.507 110.264,118.186C109.16,115.621 110.108,110.127 106.497,115.934C105.181,122.071 106.06,108.393 108.106,112.903C110.792,108.301 107.142,108.842 106.993,109.481C108.742,105.598 108.1,100.089 106.536,102.191C107.468,98.075 108.009,87.043 105.141,88.998C106.879,84.694 108.438,69.304 100.892,75.172C97.833,75.215 92.537,76.282 90.034,77.527C97.883,81.854 89.244,79.09 86.049,78.402C85.632,82.406 82.468,80.674 78.514,80.713C84.829,81.495 75.438,87.172 71.815,84.967C67.11,87.216 75.876,92.829 71.91,94.564C72.397,97.181 64.702,93.619 65.306,99.662C60.738,97.741 64.677,106.83 66.962,103.756C74.731,105.859 72.431,110.652 72.629,115.206C71.363,117.859 66.38,108.969 71.519,109.381C67.465,102.794 67.034,107 63.665,110.06C62.881,110.282 72.259,114.414 66.374,116.456C71.552,117.255 71.699,121.787 72.753,124.654C75.865,127.895 75.228,121.074 78.952,124.97C76.596,121.5 66.47,115.192 74.623,117.215C74.579,113.722 73.148,110.905 75.646,110.974C78.119,106.494 73.055,122.018 78.631,116.325C80.174,115.651 80.556,111.84 83.33,116.685C87.359,120.648 84.785,123.52 79.102,119.891C80.119,123.341 86.705,124.573 85.467,129.968C86.779,134.712 88.615,132.965 90.215,132.69C91.47,137.3 92.183,133.91 92.243,131.717C97.99,132.947 96.644,136.344 98.442,138.718C102.403,140.506 92.774,126.601 99.573,134.537C106.727,140.996 102.256,143.692 95.836,142.657C99.899,142.329 101.209,148.15 106.292,147.945C110.926,150.15 114.064,158.618 106.076,155.093C103.305,152.595 93.5,149.513 101.508,154.265C108.905,157.69 114.779,159.739 121.913,164.039C127.019,167.684 129.224,171.858 131.159,172.684C126.868,174.734 118.228,171.048 124.644,169.918C120.642,169.189 116.142,167.166 119.975,172.151C123.234,174.873 131.522,174.584 133.007,174.893C131.748,177.668 129.587,177.888 133.059,178.104C129.185,180.168 134.301,180.488 134.66,181.667L134.66,181.667ZM126.739,159.297C124.382,156.832 123.772,152.216 126.32,156.233C127.627,156.758 130.505,163.777 126.739,159.297L126.739,159.297ZM152.536,175.684C154.006,175.589 152.579,176.801 152.536,175.684ZM123.017,153.254C122.927,149.527 123.87,156.128 123.017,153.254ZM120.453,149.804C117.489,144.076 124.191,151.426 120.453,149.804ZM89.383,128.359C91.124,127.895 90.239,131.338 89.383,128.359ZM114.111,141.763C115.181,137.746 115.368,145.133 114.111,141.763ZM96.641,129.615C95.41,127.399 99.217,131.694 96.641,129.615ZM111.634,134.421C108.825,128.129 113.622,130.984 112.255,135.453L111.634,134.421ZM85.779,117.179C84.523,115.114 82.446,109.057 83.115,107.208C83.72,110.22 89.519,120.168 85.959,111.329C82.026,103.92 90.661,113.734 91.549,115.582C91.963,117.42 89.123,115.08 91.047,119.39C87.537,114.483 88.975,122.101 85.779,117.179ZM77.788,111.673C78.117,106.873 79.617,114.964 77.788,111.673ZM81.382,112.91C83.098,109.287 84.291,117.96 81.382,112.91ZM72.736,106.221C69.761,103.265 67.608,100.54 72.875,104.387C74.905,104.466 68.366,98.19 73.364,102.394C78.619,103.352 75.959,111.01 72.736,106.221ZM77.278,106.103C79.006,104.391 78.195,107.788 77.278,106.103ZM80.072,106.999C77.453,102.089 83.251,109.057 80.072,106.999ZM74.517,101.689C65.869,93.993 85.384,105.714 75.93,103.116L74.517,101.689L74.517,101.689ZM99.296,116.087C95.554,113.843 98.304,100.289 99.581,109.559C103.219,108.382 99.38,114.346 102.093,114.291C101.666,118.054 100.452,119.407 99.296,116.087ZM108.461,121.503C108.828,117.419 109.234,124.296 108.461,121.503ZM106.869,119.93C107.281,118.186 106.912,121.985 106.869,119.93ZM76.214,99.16C70.658,91.495 92.361,106.914 79.772,101.105C78.457,100.761 76.874,100.638 76.214,99.16ZM93.863,108.518C93.337,102.063 95.037,109.588 93.862,108.518L93.863,108.518ZM107.262,117.114C108.299,113.437 107.34,119.546 107.262,117.114ZM77.065,96.235C80.367,95.528 90.749,102.034 81.215,98.093C80.156,96.92 77.897,97.453 77.065,96.235ZM105.421,110.368C105.774,103.768 107.393,106.426 105.434,111.313L105.422,110.368L105.421,110.368L105.421,110.368ZM79.523,93.938C80.868,91.964 75.951,85.015 80.232,91.445C82.081,92.915 85.587,93.907 82.492,94.526C87.359,98.82 81.304,95.689 79.523,93.938ZM104.019,108.306C104.948,100.788 104.839,112.711 104.019,108.306ZM76.713,86.994C77.74,86.555 77.256,88.363 76.713,86.994ZM83.102,90.797C84.747,87.346 86.136,94.645 83.102,90.797ZM101.126,100.823C101.109,99.498 101.466,102.751 101.126,100.823ZM100.082,98.512C97.58,92.34 102.409,101.779 100.082,98.512ZM98.546,94.466C98.126,91.915 99.973,97.669 98.546,94.465L98.546,94.466ZM101.046,90.402C99.329,87.377 103.213,77.071 103.647,83.463C101.835,88.443 103.124,91.229 104.388,84.549C106.722,79.292 103.884,94.923 101.046,90.402L101.046,90.402ZM103.615,75.075C104.363,74.156 103.781,76.182 103.615,75.075ZM99.325,159.61C98.307,158.722 99.452,160.175 99.325,159.61ZM108.162,164.08C113.078,165.342 113.053,163.315 108.61,162.713C106.22,160.49 98.68,158.132 105.429,162.438C105.876,163.57 107.288,163.543 108.162,164.08ZM90.708,152.487C93.416,154.507 100.909,158.211 94.566,153.256C96.705,150.771 90.473,149.449 92.54,147.787C87.282,144.569 88.392,144.855 92.076,144.957C85.757,142.132 92.988,142.343 92.648,140.896C90.211,140.415 80.545,136.599 86.231,141.209C80.45,138.262 84.854,142.307 83.106,141.88C77.195,140.268 88.371,146.382 82.168,144.864C85.559,147.552 91.296,151.748 83.601,147.708C82.588,149.167 89.108,151.379 90.708,152.487ZM99.951,157.797C111.19,161.419 94.441,153.373 99.951,157.797ZM147.268,186.462C147.413,184.232 145.732,188.364 147.268,186.462ZM152.131,188.508C154.724,185.996 152.237,192.511 156.427,187.893C156.473,184.588 156.298,182.636 151.612,186.651C150.32,187.367 149.743,190.414 152.131,188.508ZM74.932,140.026C74.136,136.896 69.35,136.912 74.932,140.026ZM80.125,143.429C78.197,140.232 73.245,140.535 80.125,143.429ZM109.669,161.246C112.553,163.808 122.916,163.126 113.172,161.562C111.729,159.428 104.008,159.941 109.669,161.246ZM150.281,186.328C154.72,182.603 145.98,187.99 150.281,186.328ZM159.514,192.673C159.542,191.477 157.6,193.196 159.514,192.673ZM159.528,190.999C164.444,185.79 154.765,191.307 159.528,190.999L159.528,190.999ZM62.16,129.333C57.97,123.355 59.555,120.668 55.515,115.787C54.75,112.054 48.583,103.583 52.325,112.557C55.753,117.806 56.771,125.931 62.16,129.333ZM157.986,189.343C167.03,183.497 154.274,186.797 157.986,189.343ZM164.89,192.048C169.419,188.159 162.025,191.234 164.89,192.048ZM73.393,133.418C74.689,131.49 70.045,133.172 73.393,133.418ZM163.449,190.201C167.834,187.374 162.438,187.808 162.654,190.461L163.449,190.201L163.449,190.201ZM103.935,152.689C103.784,150.78 101.619,152.851 103.935,152.689ZM107.613,154.806C106.444,152.442 105.816,155.177 107.613,154.806ZM170.485,192.112C176.103,188.059 167.08,191.336 169.306,192.88L170.485,192.112ZM168.334,191.072C172.911,187.237 163.502,192.772 168.334,191.072ZM179.326,198.392C182.398,196.334 175.592,197.726 179.326,198.392ZM76.211,132.028C80.33,132.951 92.672,142.172 85.391,132.666C81.662,131.562 83.898,122.446 80.095,124.06C82.647,128.325 82.195,130.14 76.835,127.451C70.098,124.163 73.049,129.081 74.366,130.436C72.571,130.844 76.739,131.994 76.211,132.028ZM57.445,117.208C58.183,114.158 50.656,100.429 53.891,110.328C55.059,112.402 54.94,116.332 57.445,117.208ZM91.889,138.443C89.768,136.669 91.788,138.192 91.889,138.443ZM97.112,139.658C97.109,136.427 91.339,138.346 97.112,139.658ZM142.373,168.191C141.51,165.984 138.961,168.14 142.373,168.191L142.373,168.191ZM144.547,169.779C144.226,168.544 143.293,170.018 144.547,169.779ZM162.487,181.079C164.212,179.804 160.334,180.916 162.487,181.079ZM66.819,119.601C71.754,117.69 61.531,118.238 66.819,119.601ZM138.389,164.69C138.334,161.495 135.243,165.483 138.389,164.69ZM64.869,115.057C68.039,113.986 61.936,114.351 64.869,115.057ZM74.071,119.514C74.013,118.464 73.097,119.911 74.071,119.514ZM186.302,188.336C190.379,187.509 199.668,190.411 201.17,187.255C196.219,187.135 184.042,183.762 183.466,188.06L184.55,188.23L186.302,188.336L186.302,188.336ZM76.995,120.251C77.066,117.013 74.47,120.13 76.995,120.251ZM52.802,103.469C51.703,97.3 48.623,102.535 52.802,103.469ZM58.571,104.919C58.642,102.938 53.291,103.137 58.571,104.919ZM61.868,106.538C60.915,105.766 61.122,107.513 61.868,106.538ZM82.613,119.846C83.589,118.949 80.301,119.181 82.613,119.846ZM59.672,102.886C59.115,98.227 52.99,102.188 59.672,102.886ZM47.844,95.212C47.676,93.061 46.692,96.023 47.844,95.212ZM49.604,93.883C49.317,91.333 48.093,94.207 49.604,93.883ZM59.325,99.685C63.435,98.071 51.837,96.346 58.485,99.38L59.325,99.685ZM189.422,180.045C192.053,177.632 186.078,179.299 189.422,180.045ZM205.139,188.191C206.193,185.073 202.484,188.602 205.139,188.191ZM60.318,94.59C60.751,91.574 57.059,95.189 60.318,94.59ZM46.488,85.324C45.745,81.065 45.846,73.589 52.953,76.116C43.467,77.999 59.518,87.906 57.491,80.084C61.48,80.279 65.294,77.727 63.201,81.6C71.059,80.732 76.508,73.918 84.099,74.873C90.012,74.09 96.477,73.497 102.849,71.117C108.088,70.739 113.131,65.099 110.26,61.755C103.115,61.151 95.636,62.045 87.74,63.614C78.989,65.433 71.041,68.89 62.212,70.373C53.606,71.529 63.943,73.558 61.477,74.01C56.987,75.568 66.833,76.619 60.895,78.262C57.228,77.564 53.411,76.305 54.978,72.44C46.734,73.51 39.49,76.931 46.003,85.32L46.488,85.324L46.488,85.324L46.488,85.324ZM66.352,75.207C68.285,68.087 76.707,81.067 69.52,76.153C68.662,75.511 67.25,74.987 66.352,75.207ZM66.728,71.755C69.518,69.677 68.211,72.92 66.728,71.755ZM70.27,71.811C70.522,68.535 78.379,73.546 71.566,72.991L70.27,71.811ZM75.116,69.863C76.885,67.796 75.624,71.702 75.116,69.863ZM76.355,69.033C79.302,65.493 93.041,66.774 82.984,68.688C80.289,66.659 78.222,69.885 76.355,69.033ZM94.285,66.269C93.837,56.599 103.193,69.706 94.285,66.269ZM99.373,66.241C101.233,61.368 106.591,64.286 100.234,65.262C100.372,65.781 100.047,67.778 99.373,66.241ZM58.312,92.089C63.869,88.686 52.412,89.136 58.312,92.089ZM62.421,93.231C64.37,91.159 58.187,92.39 62.421,93.231ZM50.313,84.638C53.489,82.198 46.556,83.71 50.313,84.638ZM214.416,187.3C214.508,184.47 211.989,188.575 214.416,187.3ZM197.741,175.921C198.215,172.662 195.598,176.205 197.741,175.921ZM219.001,188.397C223.441,188.412 232.454,187.019 222.793,187.023C221.277,187.259 213.96,187.209 219.001,188.397L219.001,188.397ZM66.036,91.233C69.629,90.987 71.657,87.27 65.341,87.483C55.551,86.47 73.978,90.836 64.085,89.587C62.755,90.468 65.958,91.477 66.036,91.233ZM69.2,92.835C68.825,90.528 68.089,94.061 69.2,92.835ZM72.954,82.825C74.513,80.891 70.796,82.308 72.954,82.825ZM61.004,62.85C67.417,60.668 76.186,58.217 79.214,63.924C76.133,60.215 77.971,56.564 80.881,61.987C84.997,67.473 87.057,59.491 84.38,57.651C87.431,61.441 90.9,63.232 86.423,57.891C91.289,52.038 76.68,58.657 73.36,58.59C71.762,59.307 56.866,62.389 61.004,62.85ZM64.762,55.652C68.42,52.892 77.411,57.294 71.641,52.909C71.077,52.41 59.005,56.234 64.762,55.652ZM78.096,56.203C82.376,56.312 76.249,50.452 81.35,53.107C80.512,50.371 75.412,49.859 72.918,48.765C71.507,51.267 75.789,56.236 78.096,56.203ZM67.1,44.099C68.581,42.092 64.505,45.117 67.1,44.099ZM72.55,45.404C79.448,44.489 70.792,42.433 71.16,45.33L72.55,45.404L72.55,45.404L72.55,45.404ZM62.374,37.441C57.518,31.101 71.508,38.507 66.574,31.869C62.421,28.562 58.429,35.591 62.374,37.441ZM124.705,71.014C126.932,67.065 115.508,65.691 123.204,69.615C123.912,69.851 123.752,71.287 124.705,71.014Z" style="fill:rgb(242,242,242);fill-rule:nonzero;"/>
            </g>
        </g>
    </g>
</svg>
