<?xml version="1.0" encoding="UTF-8" standalone="no"?>
<!DOCTYPE svg PUBLIC "-//W3C//DTD SVG 1.1//EN" "http://www.w3.org/Graphics/SVG/1.1/DTD/svg11.dtd">
<svg width="100%" height="100%" viewBox="0 0 331 248" version="1.1" xmlns="http://www.w3.org/2000/svg" xmlns:xlink="http://www.w3.org/1999/xlink" xml:space="preserve" xmlns:serif="http://www.serif.com/" style="fill-rule:evenodd;clip-rule:evenodd;stroke-miterlimit:10;">
    <g transform="matrix(1,0,0,1,-310.276,-2868.16)">
        <g transform="matrix(1,0,0,1,0,2160)">
            <g transform="matrix(2.26539,0,0,-2.26539,224.301,1094.26)">
                <path id="path66" d="M54.14,102.044C53.542,100.417 52.943,98.788 52.345,97.159C50.864,95.693 49.383,94.225 47.901,92.758C46.282,91.154 45.933,91.165 46.314,88.896C46.76,86.229 48.042,83.481 50.403,81.115C52.884,78.627 58.094,75.107 61.843,76.767C61.495,75.507 61.032,74.186 60.443,72.894C57.929,67.382 64.056,66.302 68.344,65.143C71.907,64.179 80.652,61.612 81.914,66.295C82.482,68.402 82.57,69.535 82.368,71.547C83.477,74.022 83.831,74.416 84.749,75.778C86.008,77.646 85.918,78.357 85.642,80.675C85.589,81.122 85.524,81.609 85.449,82.121C89.692,81.483 93.772,81.491 97.931,82.007C96.668,81.271 95.402,80.627 93.732,79.768C89.769,77.731 93.504,71.72 95.212,69.088C98.797,63.563 102.011,59.763 108.067,63.04C110.102,64.141 110.259,65.314 111.528,67.21C112.23,67.594 115.844,70.668 117.994,72.405C118.808,71.427 120.368,71.247 122.733,71.077C123.923,70.99 128.589,71.019 129.826,71.012C133.537,70.988 135.765,71.374 136.055,75.418C136.192,77.336 136.11,77.744 135.166,79.42C135.109,81.536 135.053,83.652 134.997,85.767C134.932,88.15 134.477,89.612 133.542,91.839C132.692,93.861 132.215,95.586 131.222,97.547C131.359,98.316 131.467,99.109 131.54,99.938C132.802,98.723 134.063,97.506 135.325,96.291C137.73,93.974 139.717,92.082 143.385,92.255C147.204,92.435 151.576,95.444 152.696,99.124C153.069,100.353 153.441,101.581 153.814,102.809C159.574,101.72 166.305,101.97 171.319,104.645C178.695,108.581 182.146,116.495 182.994,124.866C183.68,131.638 182.359,143.026 179.131,149.205C178.181,151.022 173.894,153.321 172.015,151.417C170.599,149.982 169.626,147.795 168.098,146.489C166.914,145.477 165.447,144.977 164.162,144.447C163.167,147.133 161.737,149.221 159.986,151.307C158.593,152.965 157.281,153.791 155.445,154.941C151.817,157.213 149.001,160.082 145.7,162.804C135.709,171.041 127.13,170.789 114.682,165.549C108.743,163.049 105.879,159.657 102.237,154.784C100.035,154.67 98.523,154.243 96.196,152.19C94.479,150.674 92.88,149.115 91.332,147.499C79.697,145.645 72.47,143.427 64.825,136.65C61.714,133.892 59.453,130.835 57.689,127.399C56.051,125.59 54.423,123.735 52.261,122.902C50.738,122.317 50.767,122.318 50.23,123.75C52.04,125.11 52.012,127.67 52.179,129.988C53.321,129.933 53.749,128.653 54.525,127.673C54.984,129.722 55.249,132.904 53.093,134.021C53.443,134.959 53.84,135.903 54.203,136.937C51.022,136.385 40.117,129.034 45.936,123.428C46.319,121.871 46.62,120.799 47.126,119.746C48.458,116.977 51.451,116.503 54.06,117.52C53.345,114.242 53.2,110.676 53.631,105.67C53.734,104.47 53.907,103.259 54.14,102.044"/>
                <path id="path68" d="M54.831,101.791C54.591,101.137 54.35,100.481 54.109,99.827L52.727,100.334C52.968,100.988 53.209,101.644 53.449,102.298L54.831,101.791ZM54.109,99.827C53.752,98.854 53.393,97.879 53.036,96.906L51.654,97.413C52.011,98.386 52.369,99.361 52.727,100.334L54.109,99.827ZM53.036,96.906L52.863,96.638L52.345,97.159L53.036,96.906ZM52.863,96.638C52.078,95.861 51.293,95.083 50.508,94.306L49.472,95.348C50.257,96.125 51.042,96.904 51.827,97.68L52.863,96.638ZM50.508,94.306C49.812,93.617 49.115,92.927 48.419,92.237L47.383,93.279C48.079,93.968 48.776,94.659 49.472,95.348L50.508,94.306ZM48.419,92.237C48.101,91.923 47.993,91.818 47.897,91.726L46.878,92.791C47.09,92.996 47.325,93.222 47.383,93.279L48.419,92.237ZM47.897,91.726C46.954,90.818 46.768,90.638 47.039,89.017L45.588,88.775C45.188,91.164 45.467,91.433 46.878,92.791L47.897,91.726ZM47.039,89.017C47.258,87.711 47.692,86.379 48.374,85.082L47.067,84.397C46.314,85.827 45.833,87.311 45.588,88.775L47.039,89.017ZM48.374,85.082C49.007,83.877 49.849,82.711 50.924,81.633L49.882,80.597C48.689,81.793 47.76,83.078 47.067,84.397L48.374,85.082ZM50.924,81.633C52.299,80.254 54.544,78.546 56.881,77.658L56.362,76.281C53.809,77.252 51.37,79.105 49.882,80.597L50.924,81.633ZM56.881,77.658C58.506,77.04 60.163,76.828 61.547,77.44L62.14,76.093C60.354,75.302 58.318,75.538 56.362,76.281L56.881,77.658ZM61.547,77.44L62.969,78.07L62.554,76.571L61.843,76.767L61.547,77.44ZM62.554,76.571C62.37,75.902 62.153,75.216 61.905,74.529L60.517,75.03C60.753,75.683 60.958,76.331 61.132,76.962L62.554,76.571ZM61.905,74.528C61.673,73.887 61.41,73.237 61.114,72.589L59.773,73.2C60.047,73.801 60.295,74.415 60.517,75.03L61.905,74.529ZM61.114,72.589C59.869,69.859 61.174,68.421 63.197,67.498L62.586,66.156C59.819,67.419 58.041,69.402 59.773,73.2L61.114,72.589ZM63.197,67.498C64.49,66.909 66.054,66.502 67.507,66.123L67.139,64.701C65.612,65.098 63.968,65.527 62.586,66.156L63.197,67.498ZM67.507,66.123C67.892,66.023 68.264,65.926 68.531,65.854L68.157,64.432C67.763,64.538 67.451,64.62 67.139,64.701L67.507,66.123ZM68.531,65.854C70.284,65.38 73.314,64.511 76.039,64.338L75.946,62.864C73.092,63.045 69.966,63.942 68.157,64.432L68.531,65.854ZM76.039,64.338C78.5,64.182 80.695,64.597 81.203,66.482L82.626,66.108C81.872,63.31 79.062,62.667 75.946,62.864L76.039,64.338ZM81.203,66.482C81.472,67.481 81.628,68.252 81.693,69.017L83.167,68.896C83.097,68.065 82.924,67.216 82.626,66.108L81.203,66.482ZM81.693,69.017C81.758,69.785 81.731,70.531 81.637,71.478L83.099,71.616C83.206,70.551 83.237,69.724 83.167,68.896L81.693,69.017ZM81.637,71.478L81.694,71.846L82.368,71.547L81.637,71.478ZM81.694,71.846C82.686,74.06 83.095,74.658 83.816,75.715L85.031,74.885C84.364,73.908 83.986,73.355 83.042,71.247L81.694,71.846ZM83.816,75.715C83.89,75.823 83.953,75.914 84.138,76.19L85.359,75.367C85.312,75.297 85.159,75.072 85.031,74.885L83.816,75.715ZM84.138,76.19C84.701,77.025 84.96,77.582 85.043,78.159L86.5,77.957C86.381,77.132 86.055,76.399 85.359,75.367L84.138,76.19ZM85.043,78.159C85.129,78.764 85.042,79.487 84.911,80.592L86.374,80.759C86.518,79.546 86.614,78.753 86.5,77.957L85.043,78.159ZM84.911,80.592C84.875,80.894 84.845,81.132 84.825,81.288L86.281,81.473C86.326,81.141 86.356,80.907 86.374,80.759L84.911,80.592ZM84.825,81.288C84.808,81.413 84.772,81.665 84.721,82.015L86.178,82.228C86.2,82.071 86.235,81.827 86.281,81.473L84.825,81.288ZM84.721,82.015L84.577,82.998L85.558,82.85L85.449,82.121L84.721,82.015ZM85.558,82.85C87.643,82.536 89.689,82.381 91.725,82.368L91.719,80.894C89.615,80.908 87.498,81.068 85.34,81.393L85.558,82.85ZM91.725,82.368C93.766,82.355 95.797,82.484 97.844,82.738L98.017,81.275C95.907,81.014 93.817,80.881 91.719,80.894L91.725,82.368ZM97.844,82.738L98.299,81.367L97.931,82.007L97.844,82.738ZM98.299,81.367C97.11,80.674 95.922,80.064 94.407,79.285L93.733,80.598C95.229,81.367 96.401,81.969 97.562,82.646L98.299,81.367ZM94.407,79.285C94.296,79.229 94.183,79.17 94.069,79.112L93.395,80.425C93.51,80.483 93.623,80.542 93.734,80.598L94.407,79.285ZM94.069,79.112C92.512,78.311 92.498,76.63 93.048,74.87L91.643,74.432C90.889,76.844 90.99,79.188 93.395,80.425L94.069,79.112ZM93.048,74.87C93.671,72.872 94.996,70.77 95.828,69.488L94.596,68.688C93.719,70.038 92.322,72.258 91.643,74.432L93.048,74.87ZM95.828,69.488C97.569,66.805 99.211,64.546 101.096,63.391L100.33,62.136C98.198,63.442 96.439,65.847 94.596,68.688L95.828,69.488ZM101.096,63.391C102.877,62.299 104.96,62.198 107.719,63.691L108.416,62.389C105.119,60.605 102.566,60.765 100.33,62.136L101.096,63.391ZM107.719,63.691C109.023,64.396 109.46,65.162 110.049,66.195L111.334,65.469C110.622,64.222 110.093,63.297 108.416,62.389L107.719,63.691ZM110.049,66.195C110.284,66.606 110.541,67.056 110.918,67.619L112.139,66.801C111.837,66.351 111.574,65.89 111.334,65.469L110.049,66.195ZM110.918,67.619L111.174,67.857L111.528,67.21L110.918,67.619ZM111.174,67.857C111.605,68.094 113.443,69.612 115.231,71.09L116.169,69.955C114.321,68.427 112.419,66.856 111.882,66.562L111.174,67.857ZM115.231,71.09C116.151,71.85 117.059,72.6 117.53,72.981L118.457,71.829C117.595,71.132 116.885,70.546 116.169,69.955L115.231,71.09ZM117.53,72.981L118.095,73.437L118.561,72.877L117.994,72.405L117.53,72.981ZM118.561,72.877C118.855,72.524 119.32,72.306 119.951,72.155L119.612,70.721C118.67,70.947 117.947,71.309 117.426,71.933L118.561,72.877ZM119.951,72.155C120.677,71.982 121.63,71.897 122.784,71.814L122.681,70.34C121.471,70.427 120.46,70.518 119.612,70.721L119.951,72.155ZM122.784,71.814C123.69,71.748 126.582,71.749 128.45,71.75L128.45,70.276C126.542,70.275 123.587,70.274 122.681,70.34L122.784,71.814ZM128.45,71.75C129.042,71.75 129.534,71.75 129.829,71.749L129.823,70.275C129.529,70.276 129.039,70.276 128.45,70.276L128.45,71.75L128.45,71.75ZM129.829,71.749C131.569,71.738 132.949,71.815 133.86,72.331L134.586,71.047C133.384,70.366 131.793,70.262 129.823,70.275L129.829,71.749L129.829,71.749ZM133.86,72.331C134.693,72.803 135.193,73.732 135.318,75.47L136.792,75.366C136.626,73.06 135.867,71.773 134.586,71.047L133.86,72.331ZM135.318,75.47C135.382,76.363 135.397,76.895 135.296,77.351L136.736,77.668C136.878,77.022 136.865,76.391 136.792,75.366L135.318,75.47ZM135.296,77.351C135.196,77.808 134.959,78.282 134.521,79.06L135.811,79.78C136.316,78.883 136.594,78.313 136.736,77.668L135.296,77.351ZM134.521,79.06L134.429,79.403L135.166,79.42L134.521,79.06ZM134.429,79.403C134.401,80.461 134.372,81.519 134.344,82.577L135.818,82.611C135.846,81.554 135.875,80.495 135.903,79.437L134.429,79.403ZM134.344,82.577C134.316,83.634 134.287,84.693 134.26,85.75L135.734,85.785C135.761,84.727 135.79,83.669 135.818,82.611L134.344,82.577ZM134.26,85.75C134.229,86.886 134.106,87.797 133.882,88.683L135.31,89.04C135.562,88.044 135.7,87.032 135.734,85.785L134.26,85.75ZM133.882,88.683C133.655,89.576 133.318,90.469 132.862,91.553L134.221,92.124C134.7,90.983 135.059,90.031 135.31,89.04L133.882,88.683ZM132.862,91.553C132.54,92.32 132.263,93.066 131.993,93.796L133.375,94.303C133.633,93.607 133.896,92.896 134.221,92.124L132.862,91.553ZM133.375,94.306L133.375,94.303L132.684,94.05L133.375,94.306ZM131.993,93.793C131.571,94.929 131.163,96.032 130.563,97.216L131.882,97.878C132.511,96.635 132.937,95.488 133.375,94.306L131.993,93.793ZM130.563,97.216L130.497,97.674L131.222,97.547L130.563,97.216ZM130.497,97.674C130.569,98.085 130.63,98.466 130.676,98.812L132.133,98.628C132.073,98.178 132.011,97.777 131.948,97.42L130.497,97.674ZM130.676,98.812C130.718,99.126 130.76,99.518 130.803,99.998L132.277,99.877C132.246,99.529 132.197,99.109 132.133,98.628L130.676,98.812ZM130.803,99.998L130.94,101.539L132.05,100.47L131.54,99.938L130.803,99.998ZM132.05,100.47C132.771,99.775 133.494,99.079 134.215,98.384L133.196,97.318C132.474,98.014 131.752,98.71 131.03,99.405L132.05,100.47ZM134.215,98.384L135.834,96.824L134.815,95.758L133.196,97.318L134.215,98.384ZM135.834,96.824C137.003,95.698 138.071,94.675 139.256,93.976L138.507,92.703C137.181,93.485 136.051,94.567 134.815,95.758L135.834,96.824ZM139.256,93.976C140.395,93.303 141.68,92.913 143.35,92.992L143.419,91.518C141.422,91.424 139.879,91.893 138.507,92.703L139.256,93.976ZM143.35,92.992C145.152,93.077 147.098,93.85 148.715,95.044L149.591,93.858C147.748,92.498 145.511,91.617 143.419,91.518L143.35,92.992ZM148.715,95.044C150.259,96.182 151.49,97.693 151.99,99.337L153.401,98.911C152.804,96.948 151.373,95.173 149.591,93.858L148.715,95.044ZM151.99,99.337C152.162,99.905 152.335,100.473 152.507,101.04L153.918,100.614C153.746,100.047 153.573,99.478 153.401,98.911L151.99,99.337ZM152.507,101.04C152.707,101.701 152.908,102.362 153.109,103.022L154.52,102.596C154.319,101.936 154.118,101.274 153.918,100.614L152.507,101.04ZM153.109,103.022L153.301,103.654L153.95,103.531L153.814,102.809L153.109,103.022ZM153.95,103.531C156.934,102.967 160.184,102.77 163.308,103.098L163.452,101.635C160.186,101.293 156.792,101.498 153.679,102.086L153.95,103.531ZM163.308,103.098C166.052,103.385 168.699,104.082 170.974,105.296L171.665,103.994C169.221,102.69 166.386,101.943 163.452,101.635L163.308,103.098ZM170.974,105.296C174.306,107.074 176.809,109.701 178.611,112.823L179.889,112.091C177.953,108.738 175.259,105.912 171.665,103.994L170.974,105.296ZM178.611,112.823L178.611,112.826L179.25,112.457L178.611,112.823L178.611,112.823ZM178.611,112.826C180.67,116.392 181.823,120.601 182.263,124.936L183.725,124.797C183.265,120.253 182.053,115.837 179.889,112.089L178.611,112.826ZM182.263,124.936C182.62,128.469 182.422,133.287 181.683,137.946L183.134,138.177C183.892,133.398 184.094,128.442 183.725,124.797L182.263,124.936ZM181.683,137.946C181.03,142.057 179.957,146.032 178.477,148.866L179.784,149.545C181.338,146.571 182.458,142.436 183.134,138.177L181.683,137.946ZM178.477,148.866C178.361,149.088 178.168,149.33 177.921,149.574L178.951,150.628C179.307,150.277 179.595,149.908 179.784,149.545L178.477,148.866ZM177.921,149.574C177.289,150.198 176.35,150.788 175.378,151.123L175.856,152.516C177.037,152.11 178.18,151.39 178.951,150.628L177.921,149.574ZM175.378,151.123C174.476,151.433 173.567,151.519 172.918,151.18L172.238,152.487C173.285,153.034 174.604,152.947 175.856,152.516L175.378,151.123ZM172.918,151.18C172.782,151.109 172.655,151.016 172.542,150.902L171.488,151.932C171.713,152.161 171.966,152.345 172.238,152.487L172.918,151.179ZM172.542,150.902C171.939,150.291 171.41,149.518 170.88,148.744L169.665,149.573C170.238,150.41 170.809,151.245 171.488,151.932L172.542,150.902ZM170.88,148.744C170.183,147.725 169.482,146.702 168.575,145.928L167.62,147.051C168.386,147.706 169.027,148.642 169.665,149.573L170.88,148.744ZM168.575,145.928C167.465,144.979 166.179,144.463 164.983,143.984L164.436,145.354C165.523,145.79 166.693,146.259 167.62,147.051L168.575,145.928ZM164.983,143.984C164.775,143.9 164.571,143.818 164.441,143.765L163.882,145.129C164.111,145.224 164.274,145.289 164.436,145.354L164.983,143.984ZM164.441,143.765L163.737,143.475L163.471,144.194L164.162,144.447L164.441,143.765ZM163.471,144.194C162.994,145.481 162.409,146.63 161.732,147.711L162.982,148.494C163.706,147.338 164.335,146.099 164.853,144.701L163.471,144.194ZM161.732,147.711C161.048,148.803 160.273,149.82 159.421,150.835L160.55,151.78C161.449,150.709 162.265,149.638 162.982,148.494L161.732,147.711ZM159.421,150.835C158.763,151.619 158.125,152.205 157.436,152.73L158.328,153.899C159.101,153.31 159.816,152.654 160.55,151.78L159.421,150.835ZM157.436,152.73C156.748,153.254 155.966,153.746 155.054,154.317L155.837,155.566C156.76,154.988 157.553,154.49 158.328,153.899L157.436,152.73ZM155.054,154.317C152.484,155.926 150.33,157.815 148.132,159.743L149.099,160.854C151.251,158.967 153.359,157.117 155.837,155.566L155.054,154.317ZM148.132,159.743C147.207,160.555 146.274,161.373 145.23,162.234L146.169,163.374C147.135,162.578 148.122,161.712 149.099,160.854L148.132,159.743ZM145.23,162.234C140.363,166.247 135.855,168.192 131.066,168.493L131.158,169.967C136.269,169.646 141.047,167.597 146.169,163.374L145.23,162.234ZM131.066,168.493C126.242,168.797 121.087,167.446 114.967,164.87L114.397,166.229C120.724,168.892 126.084,170.287 131.158,169.967L131.066,168.493ZM114.967,164.87C112.083,163.656 109.949,162.228 108.096,160.515L107.1,161.598C109.075,163.425 111.343,164.944 114.397,166.229L114.967,164.87ZM108.096,160.515C106.23,158.79 104.626,156.751 102.827,154.344L101.646,155.225C103.489,157.69 105.14,159.785 107.1,161.598L108.096,160.515ZM102.827,154.344L102.619,154.065L102.274,154.048L102.237,154.785L102.827,154.344ZM102.274,154.048C101.249,153.994 100.391,153.87 99.537,153.529L98.99,154.899C100.024,155.313 101.023,155.461 102.199,155.522L102.274,154.048ZM99.537,153.529C98.671,153.183 97.777,152.603 96.683,151.637L95.71,152.743C96.941,153.83 97.969,154.491 98.99,154.899L99.537,153.529ZM96.683,151.637C95.84,150.894 95.019,150.132 94.213,149.352L93.188,150.412C93.997,151.195 94.835,151.971 95.71,152.743L96.683,151.637ZM94.213,149.352L94.21,149.349L93.701,149.882L94.213,149.352L94.213,149.352ZM94.21,149.349C93.412,148.577 92.632,147.79 91.865,146.989L90.8,148.009C91.579,148.823 92.374,149.625 93.191,150.415L94.21,149.349ZM91.865,146.989L91.447,146.773L91.332,147.499L91.865,146.989ZM91.447,146.773C85.686,145.855 81.017,144.848 76.847,143.232L76.317,144.609C80.581,146.26 85.343,147.289 91.217,148.225L91.447,146.773ZM76.847,143.232C72.713,141.631 69.064,139.424 65.312,136.097L64.338,137.203C68.23,140.653 72.019,142.944 76.317,144.609L76.847,143.232ZM65.312,136.097C63.791,134.749 62.48,133.33 61.336,131.833L60.167,132.725C61.372,134.303 62.748,135.793 64.338,137.203L65.312,136.097ZM61.336,131.833C60.192,130.334 59.209,128.748 58.345,127.066L57.032,127.733C57.932,129.487 58.963,131.147 60.167,132.725L61.336,131.833ZM58.345,127.066L58.236,126.907L57.689,127.4L58.345,127.066ZM58.236,126.907C57.398,125.981 56.561,125.042 55.664,124.235L54.679,125.334C55.545,126.115 56.343,127.009 57.142,127.892L58.236,126.907ZM55.664,124.235C54.723,123.388 53.704,122.668 52.525,122.214L51.996,123.591C52.979,123.969 53.856,124.593 54.679,125.334L55.664,124.235ZM52.525,122.214L52.523,122.214L52.261,122.902L52.525,122.214ZM52.523,122.214C51.577,121.851 51.115,121.668 50.591,121.89L51.161,123.249C51.185,123.239 51.422,123.369 51.999,123.591L52.523,122.214ZM50.591,121.89L50.588,121.893L50.876,122.57L50.591,121.89L50.591,121.89ZM50.588,121.893C50.035,122.128 49.881,122.582 49.539,123.494L50.922,124.007C51.116,123.488 51.112,123.269 51.164,123.247L50.588,121.893ZM49.539,123.494L49.347,124.007L49.79,124.34L50.23,123.75L49.539,123.494ZM49.79,124.34C51.144,125.358 51.273,127.385 51.396,129.337L52.87,129.244C52.726,126.962 52.576,124.591 50.671,123.16L49.79,124.34ZM51.396,129.337C51.412,129.592 51.428,129.846 51.442,130.04L52.916,129.936C52.897,129.669 52.883,129.456 52.87,129.244L51.396,129.337ZM51.442,130.04L51.495,130.759L52.214,130.725L52.179,129.988L51.442,130.04ZM52.214,130.725C53.43,130.667 53.984,129.809 54.581,128.884L53.343,128.089C52.961,128.68 52.607,129.229 52.145,129.251L52.214,130.725ZM54.581,128.884C54.748,128.626 54.92,128.36 55.101,128.131L53.95,127.215C53.721,127.504 53.529,127.801 53.343,128.089L54.581,128.884ZM55.245,127.514L54.908,126.006L53.95,127.215L54.525,127.673L55.245,127.514ZM53.806,127.831C54.055,128.944 54.245,130.404 53.976,131.599L55.41,131.921C55.739,130.462 55.528,128.779 55.245,127.514L53.806,127.831ZM53.976,131.599C53.805,132.359 53.438,133.012 52.756,133.365L53.429,134.678C54.557,134.094 55.148,133.081 55.41,131.921L53.976,131.599ZM52.756,133.365L52.173,133.667L52.401,134.278L53.093,134.021L52.756,133.365ZM52.401,134.278C52.51,134.569 52.669,134.973 52.832,135.388L54.202,134.852C54.075,134.527 53.947,134.2 53.784,133.765L52.401,134.278ZM52.832,135.388C53.049,135.943 53.272,136.511 53.507,137.179L54.9,136.696C54.69,136.099 54.443,135.467 54.202,134.852L52.832,135.388ZM54.08,137.663L55.316,137.878L54.9,136.696L54.203,136.937L54.08,137.663ZM54.327,136.212C52.9,135.964 49.757,134.2 47.475,131.832L46.41,132.851C48.899,135.435 52.435,137.378 54.08,137.663L54.327,136.212ZM47.475,131.832C46.649,130.974 45.948,130.047 45.505,129.102L44.169,129.718C44.691,130.832 45.486,131.892 46.41,132.851L47.475,131.832ZM45.505,129.102C45.082,128.201 44.89,127.279 45.045,126.384L43.594,126.136C43.383,127.349 43.626,128.56 44.169,129.718L45.505,129.102ZM45.045,126.384C45.186,125.571 45.623,124.753 46.445,123.961L45.426,122.895C44.36,123.923 43.787,125.019 43.594,126.136L45.045,126.384ZM46.445,123.961L46.65,123.604L45.936,123.428L46.445,123.961ZM46.65,123.604C46.837,122.842 47.005,122.199 47.187,121.617L45.782,121.179C45.592,121.785 45.417,122.457 45.222,123.252L46.65,123.604ZM47.187,121.617C47.362,121.06 47.552,120.56 47.791,120.063L46.461,119.43C46.194,119.985 45.98,120.548 45.782,121.179L47.187,121.617ZM47.791,120.063C48.321,118.96 49.16,118.289 50.127,117.979L49.678,116.574C48.341,117.003 47.186,117.923 46.461,119.43L47.791,120.063ZM50.127,117.979C51.254,117.617 52.566,117.728 53.792,118.205L54.328,116.835C52.796,116.238 51.133,116.107 49.678,116.574L50.127,117.979ZM53.792,118.205L55.072,118.705L54.78,117.365L54.06,117.52L53.792,118.205ZM54.78,117.365C54.433,115.772 54.223,114.103 54.153,112.218L52.679,112.269C52.752,114.238 52.973,115.992 53.34,117.676L54.78,117.365ZM54.153,112.218C54.083,110.332 54.154,108.216 54.368,105.73L52.894,105.61C52.677,108.13 52.606,110.302 52.679,112.269L54.153,112.218ZM54.368,105.73C54.422,105.098 54.487,104.515 54.562,103.982L53.105,103.786C53.012,104.448 52.941,105.057 52.894,105.61L54.368,105.73ZM54.562,103.982C54.645,103.395 54.745,102.794 54.863,102.183L53.417,101.906C53.299,102.524 53.194,103.151 53.105,103.786L54.562,103.982ZM54.863,102.183L54.831,101.791L54.14,102.045" style="fill-rule:nonzero;"/>
                <path id="path70" d="M91.737,146.325L82.033,144.748L73.178,140.867L65.658,136.136L58.501,127.403L54.458,123.121L50.548,121.68L49.515,124.207L51.322,126.816L51.729,130.497L52.94,130.448L54.263,129.241L53.906,132.99L52.439,133.974L52.484,135.402L49.009,133.437L45.863,129.725L45.207,126.407L46.552,123.75L47.807,119.237L50.359,118.029L53.044,118.161L55.59,119.64L53.892,111.027L55.59,101.445L53.72,97.02L47.598,90.424L48.687,86.483L51.587,81.916L57.056,78.067L59.956,77.67L63.181,77.561L61.169,69.301L68.569,66.268L77.787,65.055L80.941,67.117L81.184,72.697L84.701,78.519L84.944,83.129L93.435,82.522L101.319,83.25L93.435,78.519L94.769,72.818L99.742,65.055L104.594,62.993L108.476,64.57L110.053,67.724L118.18,73.91L119.757,72.576L132.493,72.091L135.04,74.153L135.283,77.792L134.434,79.368L133.827,89.194L129.582,97.684L130.31,101.445L132.857,100.111L140.014,93.439L143.531,93.197L147.413,94.774L151.294,97.684L153.235,103.992L164.637,103.264L171.551,105.933L177.131,111.149L181.134,118.669L182.104,127.524L181.255,137.834L179.072,147.053L176.888,149.964L173.856,150.935L168.519,145.112L163.667,143.414L159.421,150.449L155.176,154.331L152.871,155.787L143.653,163.428L136.253,167.431L128.854,168.038L120.242,166.582L112.721,163.792L107.506,159.547L103.381,154.574L99.136,153.361L91.737,146.325Z" style="fill:rgb(255,255,0);stroke:rgb(31,25,23);stroke-width:0.22px;"/>
                <path id="path72" d="M63.593,124.433C55.281,114.739 57.127,102.98 59.431,91.46C58.202,94.567 56.972,97.673 55.743,100.779C55.289,103.626 54.837,106.473 54.384,109.321C54.513,112.233 54.642,115.145 54.772,118.057C55.937,120.839 57.101,123.622 58.266,126.405C60.013,128.993 61.761,131.582 63.508,134.17C66.226,136.435 68.944,138.7 71.661,140.965C74.638,142.194 77.615,143.424 80.592,144.653C84.086,145.106 87.581,145.559 91.075,146.012C87.839,142.324 84.604,138.635 81.368,134.947C73.574,132.419 68.978,130.716 63.593,124.433" style="fill:rgb(255,255,204);"/>
                <path id="path74" d="M102.723,153.972C96.945,148.334 93.788,144.082 90.111,137.481C87.48,132.759 84.53,128.211 81.764,123.555C80.365,121.198 80.233,119.222 79.815,116.504C78.456,118.122 77.097,119.739 75.738,121.357C76.385,123.299 77.033,125.24 77.68,127.181C79.88,131.129 82.08,135.076 84.28,139.024C88.94,143.618 93.599,148.213 98.258,152.807C99.746,153.196 101.235,153.584 102.723,153.972" style="fill:rgb(255,255,204);"/>
                <path id="path76" d="M131.261,167.95C126.633,166.214 118.947,165.643 118.414,160.331C118.034,156.558 118.698,154.663 120.972,150.672C115.356,156.483 113.967,155.584 103.111,153.778C104.665,155.978 106.218,158.178 107.771,160.379C110.489,162.061 113.207,163.744 115.925,165.426C119.419,166.203 122.913,166.979 126.408,167.756C128.026,167.82 129.643,167.885 131.261,167.95" style="fill:rgb(255,255,204);"/>
                <path id="path78" d="M144.032,96.096C145.573,95.145 145.54,94.456 145.282,93.804C146.498,94.29 147.713,94.776 148.928,95.262C149.716,96.319 150.503,97.376 151.29,98.434C151.875,99.94 152.459,101.447 153.044,102.953C152.297,103.515 151.55,104.076 150.803,104.638C147.539,104.221 144.275,103.805 141.011,103.388C140.768,102.728 140.525,102.068 140.282,101.409C140.351,100.471 140.421,99.533 140.49,98.596C140.803,98.04 141.115,97.484 141.428,96.929C141.914,96.686 142.4,96.443 142.886,96.2C143.268,96.165 143.65,96.13 144.032,96.096" style="fill:rgb(204,204,0);"/>
                <path id="path80" d="M143.12,112.842C138.212,111.425 138.25,111.035 136.801,106.165C138.714,109.236 140.131,110.785 143.12,112.842" style="fill:rgb(204,204,0);"/>
                <path id="path82" d="M175.759,149.285C174.886,148.882 174.037,148.688 173.491,147.889C172.317,146.171 171.311,144.726 169.369,143.52C168.391,142.912 167.379,142.519 166.342,142.196C165.481,141.928 164.965,142.167 164.233,141.641C164.667,141.565 165.101,141.489 165.536,141.413L168.409,141.413C169.59,142.142 170.771,142.871 171.952,143.6C172.646,144.33 173.341,145.059 174.035,145.788C174.61,146.954 175.184,148.12 175.759,149.285" style="fill:rgb(204,204,0);"/>
                <path id="path84" d="M97.569,138.392C95.638,133.108 93.95,128.578 91.025,123.793C94.774,127.832 97.046,131.265 99.193,135.831C100.027,137.605 100.184,139.686 102.507,138.912C102.612,137.141 102.986,135.37 103.09,133.599C104.346,142.597 107.885,146.359 116.112,149.851C113.786,149.573 111.459,149.295 109.133,149.018C106.945,148.531 104.757,148.045 102.569,147.559C101.493,145.996 100.416,144.434 99.34,142.871C98.749,141.378 98.159,139.885 97.569,138.392" style="fill:rgb(204,204,0);"/>
                <path id="path86" d="M113.508,138.6C115.282,130.249 117.837,122.235 118.947,113.751C119.667,108.238 119.746,105.59 116.973,100.834C113.941,101.03 112.06,100.688 109.128,99.728C97.455,95.901 90.761,90.276 82.897,101.611C85.407,100.428 87.918,99.245 90.429,98.061C92.218,98.413 94.008,98.765 95.798,99.117C98.958,100.957 102.118,102.798 105.278,104.638C107.744,105.125 110.209,105.61 112.675,106.097C113.473,109.43 114.272,112.764 115.071,116.097C114.48,120.508 113.89,124.918 113.3,129.328C113.231,131.412 113.161,133.495 113.091,135.579C113.231,136.586 113.369,137.593 113.508,138.6" style="fill:rgb(204,204,0);"/>
                <path id="path88" d="M133.614,86.928C132.634,80.143 135.872,76.496 134.531,74.622C134.152,74.092 133.637,73.166 133.063,72.913C131.011,72.006 128.191,73.082 127.989,72.551L121.217,72.551C120.315,72.934 119.412,73.316 118.509,73.697C119.898,75.33 121.287,76.962 122.676,78.594C124.03,81.545 125.384,84.497 126.739,87.449C127.607,90.435 128.475,93.421 129.343,96.408L130.697,96.408C131.67,93.248 132.642,90.088 133.614,86.928" style="fill:rgb(204,204,0);"/>
                <path id="path90" d="M122.233,106.652C122.783,103.571 123.738,102.839 125.187,99.857C124.223,94.992 122.673,89.207 120.809,84.915C120.022,83.104 119.388,82.106 118.001,80.708C115.661,78.344 113.294,76.285 110.64,74.236C108.729,72.763 107.395,73.502 105.038,73.836C104.035,72.018 103.758,71.009 101.913,70.086C99.075,68.667 96.535,71.725 94.308,73.524C95.916,71.012 97.524,68.5 99.132,65.988C100.243,64.947 101.354,63.905 102.465,62.863C103.403,62.724 104.341,62.585 105.278,62.446C106.528,63.21 107.778,63.974 109.028,64.738C109.688,65.988 110.348,67.238 111.008,68.488C112.397,69.53 113.786,70.572 115.175,71.614C116.877,73.072 118.578,74.531 120.28,75.989C121.356,77.517 122.433,79.045 123.509,80.573C124.481,82.379 125.454,84.185 126.426,85.99C127.676,89.741 128.926,93.491 130.177,97.241C130.281,98.665 130.385,100.089 130.489,101.513C128.926,102.207 127.364,102.902 125.801,103.596C124.655,104.673 123.379,105.575 122.233,106.652" style="fill:rgb(204,204,0);"/>
                <path id="path92" d="M84.859,84.949C90.117,84.949 95.67,85.24 100.486,87.449C101.849,89.493 103.194,91.163 104.861,92.97C103.344,90.104 102.868,88.484 102.465,85.261C101.944,84.497 101.424,83.733 100.903,82.969C96.944,82.865 92.985,82.761 89.026,82.657C87.741,82.796 86.456,82.935 85.172,83.073C85.033,83.212 84.894,83.351 84.755,83.49C84.79,83.976 84.825,84.463 84.859,84.949" style="fill:rgb(204,204,0);"/>
                <path id="path94" d="M84.13,88.595C83.994,89.827 83.858,91.06 83.722,92.293C82.824,86.886 83.04,83.263 80.551,78.419C78.692,76.265 76.403,74.305 73.782,73.257C74.003,71.929 74.069,71.099 73.941,70.125C73.479,66.623 66.473,68.17 63.591,68.31C68.215,67.119 72.839,65.929 77.463,64.738C78.504,65.155 79.546,65.572 80.588,65.988C80.935,68.002 81.283,70.017 81.63,72.031C82.602,73.836 83.575,75.642 84.547,77.448C84.72,78.559 84.894,79.67 85.068,80.781C84.755,83.386 84.443,85.99 84.13,88.595" style="fill:rgb(204,204,0);"/>
                <path id="path96" d="M76.317,119.119C76.171,116.49 76.001,115.393 77.161,113.071C78.635,110.12 80.445,107.347 82.047,104.43C82.22,106.375 82.394,108.319 82.567,110.264C80.484,113.216 78.4,116.167 76.317,119.119" style="fill:rgb(204,204,0);"/>
                <path id="path98" d="M54.931,99.258C54.48,98.298 54.029,97.338 53.578,96.378C54.82,92.197 55.923,89.549 58.286,85.897C57.875,84.417 57.567,83.769 56.619,82.563C54.539,82.883 52.692,82.975 50.585,82.969C52.912,81.164 55.238,79.358 57.565,77.552C58.711,77.76 59.857,77.969 61.003,78.177C62.149,79.323 63.295,80.469 64.441,81.615C62.808,84.15 61.176,86.685 59.544,89.22C58.007,92.566 56.469,95.912 54.931,99.258" style="fill:rgb(204,204,0);"/>
                <path id="path100" d="M175.774,150.668C177.191,144.293 179.018,138.41 178.849,131.881C178.641,123.871 177.08,113.752 169.658,108.922C161.346,103.512 151.589,106.071 142.469,108.388C146.185,106.861 149.901,105.333 153.616,103.805C157.089,103.631 160.562,103.458 164.034,103.284C166.396,103.979 168.757,104.673 171.118,105.367C172.959,106.895 174.799,108.423 176.64,109.951C178.029,112.868 179.418,115.785 180.807,118.702C181.328,122.071 181.849,125.439 182.369,128.807C181.953,132.106 181.536,135.405 181.119,138.704C180.355,141.968 179.591,145.233 178.827,148.497C177.81,149.221 176.792,149.944 175.774,150.668" style="fill:rgb(204,204,0);"/>
                <path id="path102" d="M51.734,131.667C47.961,129.211 46.479,128.133 46.892,123.582C47.268,122.218 47.644,120.855 48.021,119.492C48.553,119.131 49.086,118.771 49.619,118.41C50.277,118.191 50.935,117.972 51.593,117.752C52.784,118.034 53.975,118.316 55.166,118.599C55.777,120.495 56.388,122.391 57,124.287C55.307,123.456 53.615,122.626 51.922,121.795L50.747,121.795C50.308,122.469 49.87,123.143 49.431,123.816C49.964,124.6 50.496,125.383 51.029,126.167C51.311,127.656 51.593,129.144 51.875,130.633C52.236,130.523 52.596,130.414 52.957,130.304C53.395,129.959 53.834,129.614 54.273,129.27C54.21,130.053 54.148,130.837 54.085,131.62C53.787,132.122 53.489,132.623 53.192,133.125C52.894,133.375 52.596,133.626 52.298,133.877C52.11,133.14 51.922,132.404 51.734,131.667" style="fill:rgb(204,204,0);"/>
                <path id="path104" d="M136.392,167.534C139.74,164.425 143.851,161.721 146.529,157.921C147.566,156.45 148.718,155.697 146.512,153.619C148.842,154.285 149.708,154.213 151.574,153.987C154.968,153.576 158.15,148.751 158.353,145.293C158.313,144.97 157.41,144.236 154.786,143.512C154.733,143.411 153.304,143.707 153.34,143.61C153.613,142.864 153.977,142.75 154.534,142.401C154.654,141.571 154.732,140.291 155.297,139.383C156.949,139.412 158.562,139.233 160.18,138.912C160.724,138.01 160.642,137.107 160.596,136.204C161.221,136.308 161.846,136.412 162.471,136.516C162.298,137.94 162.124,139.364 161.951,140.787C162.506,141.725 163.062,142.663 163.617,143.6C162.818,145.406 162.02,147.212 161.221,149.018C159.693,150.476 158.165,151.934 156.637,153.393C156.491,153.4 156.343,153.408 156.196,153.415C154.478,154.47 152.76,155.524 151.041,156.579C148.239,158.871 145.436,161.165 142.634,163.458C140.553,164.817 138.472,166.175 136.391,167.534" style="fill:rgb(204,204,0);"/>
                <path id="path106" d="M142.033,141.866C141.856,141.557 141.589,141.063 141.248,140.721C142.643,139.402 143.331,138.518 143.828,136.652C142.251,135.869 140.674,135.087 139.098,134.303C137.763,133.025 136.429,131.745 135.095,130.466C133.339,131.412 132.901,132.138 132.051,133.94C131.061,133.678 130.124,133.426 129.307,133.725C129.825,133.722 130.144,133.851 130.662,134.171C131.511,135.054 132.36,135.936 133.209,136.818C134.709,137.954 136.208,139.089 137.708,140.225C138.689,140.545 139.671,140.865 140.652,141.185C141.027,141.339 141.658,141.712 142.033,141.866" style="fill:rgb(204,204,0);"/>
                <path id="path108" d="M146.385,137.16C141.369,134.459 136.564,131.742 133.999,126.612C133.999,133.124 140.537,135.99 146.385,137.16" style="fill:rgb(204,204,0);"/>
                <path id="path110" d="M133.002,149.97C129.277,147.43 126.643,142.304 126.974,137.309C125.761,141.634 126.191,145.721 129.917,148.709C130.545,149.015 131.174,149.32 131.802,149.626C132.202,149.74 132.603,149.855 133.002,149.969" style="fill:rgb(204,204,0);"/>
                <path id="path136" d="M140.123,111.408C140.893,111.827 142.29,112.403 143.06,112.822C142.268,112.689 140.848,112.397 140.056,112.264C137.941,111.907 137.692,111.398 137.364,109.315C137.209,108.334 136.996,107.118 136.841,106.137C137.256,107.246 137.755,108.535 138.238,109.593C138.749,110.712 139.037,110.817 140.123,111.408ZM100.871,165.051C102.533,167.545 103.491,168.356 106.049,169.936C102.575,169.099 101.913,168.456 100.871,165.051ZM100.324,159.557C103.233,165.406 105.436,167.559 111.527,170.432C104.637,168.743 102.612,167.542 100.324,159.557ZM38.024,129.116C38.663,132.045 39.258,133.149 41.063,135.553C38.134,133.507 37.752,132.666 38.024,129.116ZM103.234,80.102C103.145,80.813 103.057,81.524 102.968,82.235C102.809,83.522 102.815,84.568 102.918,85.864C103.016,87.119 103.115,88.373 103.213,89.628C102.848,88.352 102.118,87.078 101.753,85.803C101.607,85.292 101.486,84.879 101.417,84.498C95.965,83.384 90.554,83.315 85.101,84.287C84.753,86.306 84.33,88.409 83.974,89.917C83.867,88.228 83.936,83.559 83.927,80.945C83.921,78.92 83.835,78.226 82.791,76.503C81.813,74.89 81.399,74.524 80.03,71.799C80.144,70.079 80.146,68.942 79.689,67.31C78.929,64.597 71.264,66.699 69.242,67.253C66.752,67.934 61.604,68.947 62.899,72.267C64.038,75.188 64.76,78.268 65.317,82.357C60.755,88.928 56.512,97.935 55.698,105.915C55.066,112.111 55.445,115.924 56.786,119.714C58.911,125.719 61.883,130.917 66.652,135.103C73.085,140.748 79.099,143.015 88.514,144.448C86.25,141.914 84.01,139.233 81.568,136.36C79.096,133.45 77.627,130.511 76.058,127.329C73.89,122.934 73.936,121.261 76.811,117.403C79.288,114.077 80.625,112.58 81.706,109.327C80.813,107.486 80.488,105.93 80.188,103.416C83.221,100.101 85.474,97.829 88.419,97.129C91.307,96.443 93.719,96.576 96.303,97.897C102.042,100.831 107.353,104.62 113.827,104.776C116.822,112.14 116.519,118.292 115.081,125.417C114.099,130.282 113.705,134.889 113.4,139.849C112.185,134.741 111.958,130.249 112.858,125.16C113.945,119.028 114.789,112.253 111.768,106.864C105.914,106.416 100.897,102.855 95.62,100.122C93.5,99.023 91.292,98.916 88.944,99.561C86.765,100.159 85.295,101.601 82.947,104.308C82.911,107.026 83.524,108.281 84.772,110.742C86.778,114.695 88.991,118.375 91.42,122.265C88.446,118.674 85.628,115.675 83.287,112.065C82.392,114.615 81.113,115.909 78.993,118.78C76.922,121.584 76.706,122.812 78.254,126.056C79.81,129.317 81.13,132.183 83.779,135.043C88.357,139.987 92.55,145.488 97.556,150.357C100.274,153 101.378,152.909 104.983,153.455C108.242,153.949 111.423,154.573 114.747,155.345C111.533,155.045 108.426,154.935 105.297,154.857C105.264,154.856 105.232,154.855 105.2,154.855C108.278,158.787 110.065,160.978 115.065,163.15C127.375,168.496 135.196,169.075 144.866,160.946C147.372,158.839 149.561,156.794 152.103,154.977C151.181,154.898 150.387,154.733 149.337,154.32C150.615,154.564 152.091,154.322 153.418,154.08C153.79,153.838 154.172,153.603 154.565,153.371C156.358,152.315 157.376,151.731 158.59,150.04C159.872,148.254 160.941,146.469 161.883,144.501C161.266,144.722 160.748,144.908 160.287,145.046C159.947,145.201 159.578,145.304 159.186,145.342C158.41,145.416 157.668,145.226 157.049,144.845C157.024,144.833 156.999,144.822 156.974,144.81C155.982,144.327 154.445,143.776 153.416,143.609C153.941,143.428 155.101,143.36 155.648,143.577C155.722,143.606 155.796,143.628 155.873,143.646C155.626,143.226 155.465,142.749 155.415,142.234C155.349,141.55 155.488,140.894 155.782,140.325C155.783,140.323 155.784,140.321 155.785,140.319C155.878,140.1 156.007,139.899 156.149,139.753C155.679,139.58 155.199,139.382 154.704,139.167C156.998,139.517 159.067,139.577 161.306,139.282C161.453,138.576 161.602,137.828 161.74,137.068C161.463,137.045 161.186,137.024 160.909,137.003C160.886,137.001 160.864,136.999 160.841,136.997C159.782,137.843 158.602,137.701 156.989,137.333C152.086,136.215 153.238,133.463 150.982,129.318C153.324,132.181 153.151,135.176 156.968,136.08C157.857,136.291 158.463,136.554 159.065,136.464C157.981,135.919 157.044,135.015 156.672,133.966C155.624,131.008 156.275,128.515 155.124,125.752C156.55,128.222 156.636,130.633 157.91,133.232C158.368,134.165 160.068,135.66 161.111,135.683C161.397,135.689 161.683,135.695 161.969,135.701C162.221,134.057 162.374,132.424 162.276,131.07C162.098,128.598 161.456,124.93 161.072,123.527C162.363,125.187 162.952,128.703 163.519,131.178C164.11,133.755 163.96,136.848 163.443,139.617C162.734,143.416 166.646,142.798 168.918,144.588C170.587,145.904 171.736,148.006 173.267,149.495C174.786,150.971 177.176,148.802 177.773,147.358C180.363,141.093 181.543,131.236 180.859,124.921C180.091,117.834 176.668,110.097 170.417,106.608C162.449,102.161 153.054,104.878 145.137,107.545C143.447,108.114 142.272,108.944 140.787,109.88C141.191,108.059 141.375,106.131 140.837,104.313C139.983,101.427 138.604,96.706 142.521,95.835C144.012,95.504 144.689,95.552 146.794,96.638C145.09,96.253 144.231,96.347 143.06,96.564C141.999,96.759 141.436,97.433 141.14,98.228C141.51,97.96 142.115,97.815 143.148,97.566C146.053,96.866 148.82,98.264 149.361,100.278C149.677,101.455 149.623,102.073 150.292,103.676C150.893,103.491 151.514,103.321 152.152,103.167C151.792,101.995 151.432,100.821 151.072,99.648C150.139,96.603 146.502,94.148 143.291,94.204C140.323,94.257 138.441,96.116 136.391,97.939C134.98,99.195 133.621,100.397 132.274,101.588C128.58,102.753 125.618,104.116 122.19,106.654C124.63,103.786 126.285,102.199 129.688,100.772C129.193,95.724 127.439,92.043 125.943,87.211C125.266,85.026 119.921,76.273 118.44,75.42C117.384,74.811 110.769,69.239 109.524,68.504C108.598,67.273 107.784,65.573 106.391,64.836C102.145,62.591 99.417,66.89 97.132,70.521C96.091,72.175 93.203,76.939 95.721,78.274C98.102,79.535 99.436,80.436 101.865,82.031C102.222,81.38 102.835,80.752 103.234,80.102L103.234,80.102ZM117.994,72.405C115.844,70.668 112.23,67.594 111.528,67.209C110.258,65.314 110.102,64.141 108.067,63.04C102.011,59.763 98.797,63.563 95.212,69.088C93.504,71.721 89.769,77.731 93.732,79.768C95.402,80.627 96.668,81.27 97.93,82.005C93.772,81.49 89.692,81.483 85.448,82.122C85.524,81.61 85.589,81.123 85.642,80.676C85.918,78.357 86.008,77.646 84.749,75.778C83.831,74.416 83.477,74.022 82.368,71.547C82.57,69.535 82.482,68.402 81.915,66.295C80.653,61.612 71.907,64.179 68.344,65.143C64.056,66.302 57.929,67.382 60.443,72.894C61.033,74.186 61.495,75.507 61.843,76.767C58.094,75.107 52.884,78.627 50.403,81.115C48.042,83.481 46.76,86.229 46.314,88.896C45.933,91.165 46.282,91.154 47.901,92.758C49.383,94.225 50.864,95.693 52.345,97.159C52.943,98.787 53.542,100.414 54.14,102.041C53.907,103.257 53.734,104.469 53.631,105.67C53.2,110.676 53.345,114.241 54.06,117.519C51.451,116.501 48.458,116.978 47.127,119.746C46.62,120.799 46.319,121.871 45.936,123.427C40.117,129.034 51.022,136.385 54.204,136.938C53.84,135.904 53.441,134.959 53.091,134.021C55.248,132.904 54.984,129.722 54.526,127.673C53.749,128.652 53.321,129.933 52.179,129.988C52.012,127.671 52.041,125.11 50.231,123.75C50.767,122.318 50.739,122.317 52.261,122.902C54.424,123.735 56.052,125.589 57.69,127.399C59.454,130.835 61.715,133.892 64.826,136.65C72.47,143.427 79.695,145.644 91.33,147.498C92.878,149.115 94.479,150.674 96.197,152.19C98.524,154.244 100.035,154.67 102.236,154.785C105.878,159.657 108.744,163.05 114.682,165.549C127.13,170.788 135.709,171.041 145.7,162.804C149.001,160.082 151.817,157.213 155.445,154.941C157.281,153.791 158.594,152.965 159.986,151.307C161.736,149.221 163.166,147.135 164.161,144.449C165.447,144.978 166.914,145.477 168.098,146.489C169.626,147.795 170.599,149.982 172.015,151.417C173.894,153.321 178.181,151.022 179.131,149.205C182.359,143.026 183.68,131.638 182.994,124.866C182.146,116.495 178.695,108.581 171.32,104.645C166.305,101.97 159.574,101.72 153.814,102.809C153.441,101.581 153.069,100.353 152.696,99.124C151.576,95.444 147.204,92.435 143.385,92.255C139.718,92.082 137.73,93.974 135.325,96.291C134.063,97.506 132.801,98.721 131.539,99.937C131.466,99.109 131.358,98.315 131.221,97.546C132.214,95.585 132.692,93.86 133.542,91.839C134.477,89.612 134.932,88.15 134.997,85.767C135.053,83.652 135.11,81.536 135.166,79.42C136.11,77.744 136.193,77.336 136.055,75.417C135.765,71.374 133.538,70.988 129.826,71.012C128.59,71.02 123.923,70.991 122.733,71.077C120.368,71.247 118.809,71.428 117.994,72.405ZM130.508,94.462C129.762,91.796 128.758,89.279 127.842,86.394C126.975,83.663 122.529,75.733 119.912,73.811C120.421,73.432 121.356,73.283 123.022,73.14C124.2,73.038 128.846,73.016 130.012,72.996C132.58,72.951 133.555,73.144 133.815,76.069C133.942,77.5 133.83,77.768 133.114,79.023C133.05,81.261 132.987,83.5 132.924,85.738C132.864,87.86 132.457,89.082 131.622,91.06C131.123,92.243 130.852,93.348 130.508,94.462ZM52.285,131.09C52.861,131.155 53.218,130.853 53.664,130.407C53.581,131.472 53.384,132.261 52.637,132.697C52.584,132.523 52.535,132.35 52.489,132.175C52.398,131.832 52.334,131.468 52.285,131.09ZM55.907,123.397C55.492,122.324 55.107,121.217 54.744,120.073C54.684,119.884 54.627,119.694 54.571,119.505C52.378,118.575 49.494,117.984 48.391,120.288C47.855,121.407 47.552,122.504 47.161,123.918C43.55,127.659 48.948,132.599 51.889,134.37C51.463,133.455 51.161,132.763 50.955,132.05C50.06,128.96 51.359,126.203 48.555,123.963C49.873,121.303 49.812,120.243 52.878,121.472C54.061,121.946 55.037,122.611 55.907,123.397ZM55.062,98.22C56.724,92.472 59.555,86.823 62.693,82.074C62.693,82.047 62.692,82.02 62.692,81.992C62.496,81.175 62.268,80.38 61.791,79.741C59.548,76.74 53.842,81.145 52.191,82.831C50.386,84.675 49.177,86.858 48.889,88.905C48.68,90.399 48.883,90.435 49.925,91.491C51.33,92.913 52.735,94.336 54.139,95.757C54.446,96.578 54.755,97.399 55.062,98.22ZM161.277,144.361C161.597,144.045 161.855,143.668 162.033,143.251C162.13,143.34 162.234,143.425 162.342,143.505C162.211,143.801 162.077,144.093 161.941,144.38C161.713,144.375 161.492,144.369 161.277,144.361ZM133.801,134.021C133.509,134.634 133.369,135.281 133.364,135.92C132.287,135.06 131.117,134.245 129.902,133.774C131.579,135.272 133.857,138.804 135.507,139.918C137.381,141.184 139.923,140.938 142.107,141.948C141.361,141.271 140.405,140.725 139.433,140.205C140.504,139.813 141.43,139.019 141.959,137.911C142.182,137.444 142.315,136.956 142.369,136.468C143.836,136.95 145.277,137.178 146.494,137.161C142.14,135.939 137.51,133.081 134.317,129.296C134.676,130.283 135.177,131.174 135.781,131.969C134.944,132.407 134.238,133.106 133.801,134.021ZM113.615,149.769C111.211,148.831 109.018,148.127 106.675,147.538C104.537,144.728 103.234,143.272 102.742,139.505C102.163,143.211 102.043,143.899 103.692,146.664C103.214,146.421 102.77,146.087 102.133,145.543C99.829,143.573 96.825,135.831 95.625,133.063C96.387,136.394 98.771,144.722 101.227,147.149C102.842,148.746 103.208,148.709 105.485,148.925C108.197,149.182 110.904,149.462 113.615,149.769ZM163.789,141.69C165.739,141.506 166.854,141.205 168.6,142.069C171.855,143.679 174.249,146.309 175.802,149.453C174.852,145.701 172.941,142.513 168.975,141.099C167.028,140.405 165.772,141.122 163.789,141.69ZM126.364,141.324C127.099,144.577 128.403,147.712 133.456,150.138C126.759,148.461 125.503,145.648 126.364,141.324ZM39.52,123.801C40.094,130.308 41.36,133.117 45.983,138.014C40.184,133.928 38.737,132.071 39.52,123.801"/>
                <path id="path138" d="M134.675,132.973C134.227,133.909 134.628,135.037 135.566,135.484C136.504,135.931 137.635,135.531 138.082,134.595C138.125,134.506 138.158,134.415 138.186,134.323C137.29,133.658 136.468,132.875 135.78,131.967C135.315,132.153 134.905,132.492 134.675,132.973" style="fill:rgb(255,255,204);"/>
                <path id="path140" d="M155.643,141.085C155.718,141.86 156.379,142.432 157.154,142.357C157.929,142.282 158.502,141.589 158.427,140.813C158.411,140.648 158.367,140.494 158.3,140.351C157.59,140.23 156.88,140.022 156.149,139.753C155.843,140.066 155.6,140.638 155.643,141.085" style="fill:rgb(255,255,204);"/>
            </g>
        </g>
    </g>
</svg>
