<?xml version="1.0" encoding="UTF-8" standalone="no"?>
<!DOCTYPE svg PUBLIC "-//W3C//DTD SVG 1.1//EN" "http://www.w3.org/Graphics/SVG/1.1/DTD/svg11.dtd">
<svg width="100%" height="100%" viewBox="0 0 289 329" version="1.1" xmlns="http://www.w3.org/2000/svg" xmlns:xlink="http://www.w3.org/1999/xlink" xml:space="preserve" xmlns:serif="http://www.serif.com/" style="fill-rule:evenodd;clip-rule:evenodd;stroke-linejoin:round;stroke-miterlimit:2;">
    <g transform="matrix(1,0,0,1,-1303.59,-1725.87)">
        <g transform="matrix(1.59992,0,0,1.59992,309.28,758.199)">
            <g transform="matrix(0.456746,0,0,0.456746,620.867,554.888)">
                <path d="M116.039,536.201L36.744,514L19.101,316.667C9.398,208.133 1.43,117.083 1.396,114.333L1.333,109.333L396,109.333L396.026,112.333C396.061,116.522 361.355,508.037 360.648,511.421C360.14,513.85 350.573,516.806 279.703,536.429C235.5,548.669 198.433,558.62 197.333,558.542C196.233,558.465 159.651,548.412 116.039,536.201L116.039,536.201Z" style="fill:rgb(240,189,36);"/>
            </g>
            <g transform="matrix(0.456746,0,0,0.456746,620.867,554.888)">
                <path d="M89.333,366.667L89.389,371.667C89.494,381.017 95.557,444.001 96.438,444.882C97.456,445.9 194.35,473.137 197.333,473.244C198.433,473.283 221.76,467.08 249.171,459.459L249.171,459.459C276.582,451.838 299.398,444.974 299.874,444.205C300.349,443.435 303.624,409.925 307.15,369.736C310.677,329.548 313.852,295.617 314.205,294.333C314.811,292.129 310.147,292 229.691,292L144.535,292L148.161,253.667C150.155,232.583 151.835,215.279 151.893,215.212C151.952,215.145 164.45,214.747 179.667,214.326C204.618,213.637 256.071,215.627 257.793,217.348C258.436,217.991 262.667,259.499 262.667,265.165C262.667,267.959 263.044,268 288.503,268L314.339,268L313.73,262.333C313.395,259.217 311.207,235.067 308.867,208.667L304.612,160.667L204.973,160.325C125.704,160.053 105.331,160.325 105.322,161.658C105.315,162.58 104.735,168.433 104.031,174.667C102.328,189.75 89.333,335.489 89.333,339.514L89.333,342.667L258.901,342.667L258.145,347.667C257.73,350.417 256.412,364.367 255.217,378.667C254.021,392.967 252.659,405.036 252.188,405.488C250.946,406.68 201.069,420.005 197.959,419.975C196.515,419.961 183.633,416.747 169.333,412.833L143.333,405.716L142.38,394.524C141.856,388.369 141.058,379.583 140.607,375L139.788,366.667L89.333,366.667Z" style="fill:white;"/>
            </g>
        </g>
    </g>
</svg>
