<?xml version="1.0" encoding="UTF-8" standalone="no"?>
<!DOCTYPE svg PUBLIC "-//W3C//DTD SVG 1.1//EN" "http://www.w3.org/Graphics/SVG/1.1/DTD/svg11.dtd">
<svg width="100%" height="100%" viewBox="0 0 247 292" version="1.1" xmlns="http://www.w3.org/2000/svg" xmlns:xlink="http://www.w3.org/1999/xlink" xml:space="preserve" xmlns:serif="http://www.serif.com/" style="fill-rule:evenodd;clip-rule:evenodd;stroke-linejoin:round;stroke-miterlimit:2;">
    <g transform="matrix(1,0,0,1,-836.571,-2824.11)">
        <g transform="matrix(1,0,0,1,0,2160)">
            <g id="Linux" transform="matrix(0.830624,0,0,0.830624,752.793,614.028)">
                <path d="M343.63,203.832C322.782,185.121 314.023,156.799 318.291,129.113C318.892,125.217 319.115,121.196 318.923,117.089C317.477,86.197 292.018,61.219 261.104,60.323C227.347,59.345 199.675,86.418 199.675,119.955C199.675,124.983 200.297,129.866 201.468,134.53C208.273,161.629 201.558,190.287 182.399,210.624C163.168,231.038 151.003,258.452 151.003,288.648C151.003,358.192 178.067,391.707 216.79,402.266C225.699,398.267 238.619,395.75 252.999,395.75C266.677,395.75 279.029,398.028 287.87,401.692C335.65,392.114 358.316,368.843 374.13,315.114C386.761,272.2 367.179,224.966 343.63,203.832Z" style="fill:rgb(51,51,51);fill-rule:nonzero;"/>
                <path d="M343.63,203.832C322.782,185.121 314.023,156.799 318.291,129.113C318.892,125.217 319.115,121.196 318.923,117.089C317.477,86.197 292.018,61.219 261.104,60.323C258.357,60.243 255.655,60.368 253,60.649L253,395.75C268.921,395.75 283.055,398.833 291.933,403.6C337.139,396.552 358.76,367.338 374.13,315.114C386.761,272.2 367.179,224.966 343.63,203.832Z" style="fill:rgb(51,51,51);fill-rule:nonzero;"/>
                <path d="M176.289,302.745C176.289,257.405 212.614,152.408 257.423,152.408C302.232,152.408 338.557,257.936 338.557,302.745C338.557,347.554 302.232,383.879 257.423,383.879C212.614,383.879 176.289,347.554 176.289,302.745Z" style="fill:white;fill-rule:nonzero;"/>
                <path d="M257.424,152.408C255.94,152.408 254.465,152.531 253,152.755L253,383.754C254.465,383.833 255.939,383.879 257.424,383.879C302.233,383.879 338.558,347.554 338.558,302.745C338.558,257.936 302.233,152.408 257.424,152.408Z" style="fill:white;fill-rule:nonzero;"/>
                <ellipse cx="227.5" cy="129.5" rx="13.363" ry="18.14" style="fill:rgb(230,230,230);"/>
                <ellipse cx="227.5" cy="133.62" rx="6.627" ry="11.759" style="fill:rgb(0,1,0);"/>
                <ellipse cx="275.08" cy="129.5" rx="13.363" ry="18.14" style="fill:rgb(230,230,230);"/>
                <ellipse cx="275.08" cy="133.62" rx="6.627" ry="11.759" style="fill:rgb(0,1,0);"/>
                <path d="M292.98,160.521C297.344,169.828 264.106,187.486 252.532,187.486C238.095,187.486 207.946,166.148 212.084,160.521C219.805,150.021 236.663,133.079 250.503,133.079C260.474,133.079 290.014,154.197 292.98,160.521Z" style="fill:rgb(254,154,15);fill-rule:nonzero;"/>
                <path d="M292.979,160.521C290.23,154.66 264.667,136.103 253,133.416L253,187.465C264.962,187.025 297.288,169.709 292.979,160.521Z" style="fill:rgb(254,154,15);fill-rule:nonzero;"/>
                <path d="M343.568,305.75C349.466,317.143 358.238,327.903 369.552,330.394C377.896,332.231 384.207,339.331 385.138,347.824C385.267,349.003 385.442,350.185 385.665,351.37C387.106,359.049 390.367,365.925 394.917,371.637C401.748,380.213 396.824,393.004 386.052,395.045L300.987,411.166C282.458,414.678 268.52,394.589 278.296,378.462L325.264,304.823C329.66,297.929 339.81,298.488 343.568,305.75Z" style="fill:rgb(254,155,14);fill-rule:nonzero;"/>
                <path d="M252.394,182.211C240.306,182.211 227.977,176.303 215.683,164.604L219.819,160.257C232.076,171.919 244.11,177.229 255.578,176.047C271.409,174.412 280.939,160.862 281.033,160.726L285.971,164.136C285.521,164.787 274.745,180.1 256.195,182.015C254.93,182.146 253.662,182.211 252.394,182.211Z" style="fill:rgb(174,78,50);fill-rule:nonzero;"/>
                <path d="M255.577,176.047C254.722,176.135 253.862,176.175 253,176.191L253,182.195C254.066,182.177 255.131,182.125 256.192,182.015C274.743,180.1 285.518,164.786 285.968,164.136L281.03,160.726C280.938,160.862 271.407,174.412 255.577,176.047Z" style="fill:rgb(174,78,50);fill-rule:nonzero;"/>
                <circle cx="355.14" cy="318.86" r="27.25" style="fill:rgb(51,51,51);"/>
                <path d="M171,289C171,289 200.119,324.5 220.869,332.5C241.619,340.5 211,363.727 183,346.113C155,328.5 171,289 171,289Z" style="fill:rgb(51,51,51);fill-rule:nonzero;"/>
                <path d="M155.35,305.75C149.452,317.143 140.68,327.903 129.366,330.394C121.022,332.231 114.711,339.331 113.78,347.824C113.651,349.003 113.476,350.185 113.254,351.37C111.813,359.049 108.552,365.925 104.002,371.637C97.171,380.213 102.095,393.004 112.867,395.045L197.932,411.166C216.461,414.678 230.399,394.589 220.623,378.462L173.655,304.823C169.258,297.929 159.108,298.488 155.35,305.75Z" style="fill:rgb(254,155,14);fill-rule:nonzero;"/>
            </g>
        </g>
    </g>
</svg>
