<?xml version="1.0" encoding="UTF-8" standalone="no"?>
<!DOCTYPE svg PUBLIC "-//W3C//DTD SVG 1.1//EN" "http://www.w3.org/Graphics/SVG/1.1/DTD/svg11.dtd">
<svg width="100%" height="100%" viewBox="0 0 248 146" version="1.1" xmlns="http://www.w3.org/2000/svg" xmlns:xlink="http://www.w3.org/1999/xlink" xml:space="preserve" xmlns:serif="http://www.serif.com/" style="fill-rule:evenodd;clip-rule:evenodd;stroke-linejoin:round;stroke-miterlimit:1.5;">
    <g transform="matrix(1,0,0,1,-1.52439,-51.2744)">
        <g transform="matrix(1,0,0,1,-262,-254.5)">
            <path d="M268.25,402.375L335.313,402.375C335.313,402.375 355.823,367.563 365,366C374.177,364.438 386.186,441.544 390.375,393C394.564,344.456 410,310.5 410,310.5L414,446.5L430,385.125C430,385.125 437.493,432.022 442,402.5C446.507,372.978 458,310.5 458,310.5L462,446.5C462,446.5 469,403.771 478,394.5C484.632,387.669 506,400 506,400" style="fill:none;stroke:rgb(232,189,180);stroke-width:9.45px;"/>
        </g>
    </g>
</svg>
