<?xml version="1.0" encoding="UTF-8" standalone="no"?>
<!DOCTYPE svg PUBLIC "-//W3C//DTD SVG 1.1//EN" "http://www.w3.org/Graphics/SVG/1.1/DTD/svg11.dtd">
<svg width="100%" height="100%" viewBox="0 0 298 292" version="1.1" xmlns="http://www.w3.org/2000/svg" xmlns:xlink="http://www.w3.org/1999/xlink" xml:space="preserve" xmlns:serif="http://www.serif.com/" style="fill-rule:evenodd;clip-rule:evenodd;stroke-linejoin:round;stroke-miterlimit:2;">
    <g transform="matrix(1,0,0,1,-1622.76,-3969.2)">
        <g transform="matrix(1,0,0,1,0,3240)">
            <g transform="matrix(0.118986,0,0,0.118986,1622.73,729.199)">
                <path d="M2301.25,1896.63C2165.33,1893.24 2059.99,1906.84 1971.64,1944.21C1946.15,1954.4 1905.37,1954.41 1901.97,1986.69C1915.57,2000.29 1917.27,2022.38 1929.16,2041.06C1949.57,2075.03 1985.23,2120.91 2017.51,2144.71C2053.18,2171.89 2088.88,2199.06 2126.24,2222.85C2192.51,2263.64 2267.28,2287.41 2331.84,2328.2C2369.23,2351.97 2406.58,2382.57 2443.97,2408.05C2462.66,2421.62 2474.54,2443.73 2498.34,2452.22L2498.34,2447.13C2486.44,2431.83 2483.04,2409.75 2471.15,2392.76C2454.18,2375.76 2437.17,2360.47 2420.18,2343.48C2370.91,2277.23 2309.75,2219.45 2243.49,2171.89C2189.12,2134.5 2070.18,2083.54 2048.1,2020.67C2048.1,2020.67 2046.39,2018.98 2044.7,2017.28C2082.07,2013.88 2126.24,2000.29 2161.93,1990.09C2219.7,1974.79 2272.36,1978.19 2331.84,1962.9C2359.01,1956.11 2386.2,1947.61 2413.38,1939.11L2413.38,1923.83C2382.81,1893.24 2360.72,1852.47 2328.44,1823.59C2241.79,1748.81 2146.63,1675.76 2048.1,1614.6C1995.42,1580.62 1927.45,1558.53 1871.39,1529.65C1851.02,1519.44 1817.02,1514.36 1805.14,1497.37C1774.54,1459.99 1757.55,1410.73 1735.47,1366.55C1686.21,1273.09 1638.62,1169.45 1596.14,1070.92C1565.58,1004.65 1546.88,938.381 1509.5,877.229C1334.5,588.391 1144.21,413.391 851.982,241.779C789.111,206.105 714.355,190.813 634.502,172.131C592.041,170.422 549.551,167.033 507.08,165.324C479.893,153.43 452.705,121.154 428.916,105.861C332.09,44.689 82.314,-87.82 10.957,87.18C-34.922,197.609 78.926,306.34 117.988,362.424C146.895,401.496 184.258,445.666 204.648,489.846C216.543,518.713 219.932,549.318 231.826,579.895C259.023,654.631 284.492,737.902 320.186,807.57C338.877,843.244 359.258,880.617 383.047,912.902C396.641,931.584 420.42,940.09 425.527,970.666C401.748,1004.65 400.039,1055.63 386.436,1098.1C325.273,1290.09 349.072,1527.95 435.713,1668.97C462.891,1711.43 527.461,1804.9 614.111,1769.21C690.576,1738.63 673.584,1641.79 695.654,1556.84C700.771,1536.43 697.373,1522.85 707.559,1509.26L707.559,1512.67C731.348,1560.23 755.127,1606.12 777.217,1653.68C829.893,1736.93 921.631,1823.59 998.086,1881.36C1038.88,1911.93 1071.15,1964.6 1122.13,1983.29L1122.13,1978.19L1118.72,1978.19C1108.53,1962.89 1093.23,1956.11 1079.65,1944.2C1049.07,1913.63 1015.08,1876.25 991.299,1842.27C919.951,1747.11 857.07,1641.78 801.006,1533.04C773.828,1480.38 750.029,1422.61 727.949,1369.94C717.744,1349.53 717.744,1318.97 700.762,1308.78C675.273,1346.15 637.9,1378.44 619.209,1424.31C586.943,1497.37 583.535,1587.41 571.641,1680.85C564.844,1682.57 568.232,1680.85 564.834,1684.27C510.479,1670.66 491.787,1614.6 471.387,1567.02C420.41,1446.4 411.914,1252.71 456.104,1113.39C467.998,1077.71 518.975,965.578 498.584,931.594C488.389,899.309 454.395,880.617 435.713,855.139C413.633,822.854 389.834,782.092 374.551,746.398C333.77,651.252 313.379,545.91 269.209,450.764C248.818,406.584 213.154,360.725 184.258,319.943C151.982,274.074 116.299,241.779 90.811,187.414C82.324,168.732 70.42,138.146 84.014,117.756C87.412,104.162 94.199,99.074 107.803,95.676C129.893,76.975 192.764,100.764 214.834,110.959C277.705,136.428 330.371,160.236 383.047,195.91C406.826,212.902 432.314,245.187 462.891,253.684L498.574,253.684C552.949,265.568 614.102,257.082 665.078,272.365C755.137,301.242 836.68,343.723 909.746,389.602C1132.32,530.617 1315.8,731.105 1439.84,970.666C1460.23,1009.73 1468.72,1045.43 1487.41,1086.19C1523.11,1169.45 1567.28,1254.41 1602.94,1335.96C1638.62,1415.8 1672.6,1497.37 1723.57,1563.63C1749.06,1599.3 1851,1618 1896.88,1636.69C1930.86,1651.98 1983.54,1665.58 2014.11,1684.26C2071.88,1719.92 2129.64,1760.73 2184.01,1799.79C2211.2,1820.18 2296.14,1862.66 2301.25,1896.63Z" style="fill:rgb(0,84,107);fill-rule:nonzero;"/>
                <path d="M568.223,420.168C539.346,420.168 518.965,423.586 498.574,428.674L498.574,432.072L501.973,432.072C515.576,459.26 539.346,477.951 556.328,501.73C569.932,528.908 581.816,556.105 595.42,583.293C597.109,581.584 598.809,579.895 598.809,579.895C622.607,562.893 634.492,535.715 634.492,494.934C624.297,483.049 622.598,471.154 614.102,459.26C603.916,442.258 581.816,433.771 568.223,420.168Z" style="fill:rgb(0,84,107);fill-rule:nonzero;"/>
            </g>
        </g>
    </g>
</svg>
