<?xml version="1.0" encoding="UTF-8" standalone="no"?>
<!DOCTYPE svg PUBLIC "-//W3C//DTD SVG 1.1//EN" "http://www.w3.org/Graphics/SVG/1.1/DTD/svg11.dtd">
<svg width="100%" height="100%" viewBox="0 0 113 110" version="1.1" xmlns="http://www.w3.org/2000/svg" xmlns:xlink="http://www.w3.org/1999/xlink" xml:space="preserve" xmlns:serif="http://www.serif.com/" style="fill-rule:evenodd;clip-rule:evenodd;stroke-linejoin:round;stroke-miterlimit:2;">
    <g transform="matrix(1,0,0,1,-1464.2,-3909.39)">
        <g transform="matrix(0.280349,0,0,0.280349,1116.98,3652.24)">
            <g transform="matrix(1.0287,0,0,1.0025,1242.1,920.832)">
                <path d="M353.188,252.052C329.678,252.052 306.594,248.375 284.719,241.146C274,237.49 260.823,240.844 254.281,247.563L211.104,280.157C161.031,253.428 130.187,222.594 103.823,172.897L135.458,130.845C143.677,122.637 146.625,110.647 143.093,99.397C135.833,77.407 132.145,54.334 132.145,30.814C132.146,13.823 118.323,0 101.333,0L30.813,0C13.823,0 0,13.823 0,30.813C0,225.563 158.438,384 353.188,384C370.178,384 384.001,370.177 384.001,353.187L384.001,282.864C384,265.875 370.177,252.052 353.188,252.052Z" style="fill:rgb(38,38,38);fill-rule:nonzero;stroke:rgb(255,239,239);stroke-width:7.02px;"/>
            </g>
            <g transform="matrix(0.866745,0,0,0.86082,1273.19,948.034)">
                <path d="M353.188,252.052C329.678,252.052 306.594,248.375 284.719,241.146C274,237.49 260.823,240.844 254.281,247.563L211.104,280.157C161.031,253.428 130.187,222.594 103.823,172.897L135.458,130.845C143.677,122.637 146.625,110.647 143.093,99.397C135.833,77.407 132.145,54.334 132.145,30.814C132.146,13.823 118.323,0 101.333,0L30.813,0C13.823,0 0,13.823 0,30.813C0,225.563 158.438,384 353.188,384C370.178,384 384.001,370.177 384.001,353.187L384.001,282.864C384,265.875 370.177,252.052 353.188,252.052Z" style="fill:white;fill-rule:nonzero;"/>
            </g>
        </g>
    </g>
</svg>
