<?xml version="1.0" encoding="UTF-8" standalone="no"?>
<!DOCTYPE svg PUBLIC "-//W3C//DTD SVG 1.1//EN" "http://www.w3.org/Graphics/SVG/1.1/DTD/svg11.dtd">
<svg width="100%" height="100%" viewBox="0 0 375 171" version="1.1" xmlns="http://www.w3.org/2000/svg" xmlns:xlink="http://www.w3.org/1999/xlink" xml:space="preserve" xmlns:serif="http://www.serif.com/" style="fill-rule:evenodd;clip-rule:evenodd;stroke-linejoin:round;stroke-miterlimit:2;">
    <g transform="matrix(1,0,0,1,-1262.61,-2425.98)">
        <g transform="matrix(1,0,0,1,0,2160)">
            <g id="php" transform="matrix(0.798999,0,0,0.798999,173.434,135.474)">
                <g transform="matrix(1,0,0,1,1341.84,14)">
                    <path d="M76.109,323.604C42.083,305.051 21.333,281.396 21.333,256C21.333,198.177 128.802,149.333 256,149.333C383.198,149.333 490.667,198.177 490.667,256C490.667,313.823 383.198,362.667 256,362.667C194.665,362.667 138.064,351.239 95.741,332.994L76.109,323.604Z" style="fill:rgb(130,177,255);fill-rule:nonzero;"/>
                </g>
                <g transform="matrix(1,0,0,1,1341.84,14)">
                    <path d="M407.385,192L362.666,192C357.77,192 353.51,195.333 352.322,200.083L331.041,285.177C330.999,285.333 330.968,285.479 330.926,285.625L320.322,328.083C318.884,333.791 322.364,339.583 328.082,341.01C328.947,341.229 329.822,341.333 330.676,341.333C335.457,341.333 339.801,338.104 341.009,333.25L349.665,298.667L387.082,298.667C415.29,298.667 439.77,279.552 446.624,252.177L448.489,244.667C451.687,231.917 448.874,218.657 440.791,208.302C432.698,197.938 420.531,192 407.385,192ZM427.792,239.5L425.927,247.01C421.458,264.864 405.489,277.333 387.083,277.333L355,277.333L371,213.333L407.385,213.333C413.906,213.333 419.958,216.281 423.968,221.427C427.99,226.573 429.385,233.156 427.792,239.5Z" style="fill:rgb(48,60,66);fill-rule:nonzero;"/>
                </g>
                <g transform="matrix(1,0,0,1,1096.48,13.9201)">
                    <path d="M407.385,192L362.666,192C357.77,192 353.51,195.333 352.322,200.083L331.041,285.177C330.999,285.333 330.968,285.479 330.926,285.625L320.322,328.083C318.884,333.791 322.364,339.583 328.082,341.01C328.947,341.229 329.822,341.333 330.676,341.333C335.457,341.333 339.801,338.104 341.009,333.25L349.665,298.667L387.082,298.667C415.29,298.667 439.77,279.552 446.624,252.177L448.489,244.667C451.687,231.917 448.874,218.657 440.791,208.302C432.698,197.938 420.531,192 407.385,192ZM427.792,239.5L425.927,247.01C421.458,264.864 405.489,277.333 387.083,277.333L355,277.333L371,213.333L407.385,213.333C413.906,213.333 419.958,216.281 423.968,221.427C427.99,226.573 429.385,233.156 427.792,239.5Z" style="fill:rgb(48,60,66);fill-rule:nonzero;"/>
                </g>
                <g transform="matrix(1,0,0,1,1341.84,14)">
                    <path d="M313.5,205.021C306.76,196.75 296.781,192 286.104,192L252.29,192L255.823,172.573C256.886,166.781 253.042,161.229 247.24,160.177C241.48,159.114 235.886,162.958 234.844,168.76L213.51,286.094C212.447,291.886 216.291,297.438 222.093,298.49C222.739,298.615 223.374,298.667 224.01,298.667C229.073,298.667 233.562,295.063 234.489,289.907L248.411,213.334L286.104,213.334C290.333,213.334 294.281,215.209 296.948,218.49C299.615,221.771 300.656,226.021 299.792,230.167L288.219,285.834C287.021,291.594 290.729,297.24 296.5,298.449C297.229,298.595 297.958,298.668 298.677,298.668C303.625,298.668 308.062,295.21 309.115,290.168L320.688,234.501C322.854,224.052 320.229,213.302 313.5,205.021Z" style="fill:rgb(48,60,66);fill-rule:nonzero;"/>
                </g>
            </g>
        </g>
    </g>
</svg>
