<?xml version="1.0" encoding="UTF-8" standalone="no"?>
<!DOCTYPE svg PUBLIC "-//W3C//DTD SVG 1.1//EN" "http://www.w3.org/Graphics/SVG/1.1/DTD/svg11.dtd">
<svg width="100%" height="100%" viewBox="0 0 251 237" version="1.1" xmlns="http://www.w3.org/2000/svg" xmlns:xlink="http://www.w3.org/1999/xlink" xml:space="preserve" xmlns:serif="http://www.serif.com/" style="fill-rule:evenodd;clip-rule:evenodd;stroke-linejoin:round;stroke-miterlimit:2;">
    <g transform="matrix(1,0,0,1,-347.572,-2359.94)">
        <g transform="matrix(1,0,0,1,0,2160)">
            <g id="Python" transform="matrix(14.6752,0,0,14.6752,347.575,193.038)">
                <g transform="matrix(0.0355851,0,0,0.0356032,-36.8761,-59.8541)">
                    <circle cx="1215.44" cy="1750.88" r="27.582" style="fill:white;"/>
                </g>
                <g transform="matrix(0.0355851,0,0,0.0355851,-32.853,-47.9038)">
                    <circle cx="1215.44" cy="1750.88" r="27.582" style="fill:white;"/>
                </g>
                <path d="M13.12,4.691C13.12,4.691 12.995,6.428 12.689,7.297C11.744,9.981 7.775,8.069 5.644,9.035C4.35,9.622 4.155,14.09 4.92,15.406C5.917,17.125 10.661,16.78 12.16,15.551C12.332,14.942 12.314,13.835 12.306,12.955L7.603,12.955L7.603,12.543L12.304,12.543C12.304,12.537 14.621,12.53 14.621,12.53C17.947,12.53 18.245,4.691 13.12,4.691ZM10.398,13.42C10.94,13.42 11.38,13.859 11.38,14.402C11.38,14.944 10.94,15.383 10.398,15.383C9.856,15.383 9.417,14.944 9.417,14.402C9.417,13.859 9.856,13.42 10.398,13.42Z" style="fill:rgb(254,210,62);fill-rule:nonzero;"/>
                <path d="M11.298,8.02C12.593,7.433 12.786,2.965 12.022,1.649C11.024,-0.069 6.28,0.276 4.782,1.504C4.61,2.114 4.628,3.221 4.636,4.101L9.338,4.101L9.338,4.513L4.637,4.513C4.637,4.519 2.544,4.526 2.544,4.526C-1.065,4.526 -0.99,12.364 3.772,12.364C3.772,12.364 3.947,10.628 4.253,9.758C5.198,7.073 9.168,8.986 11.298,8.02ZM6.375,3.465C5.833,3.465 5.394,3.026 5.394,2.483C5.394,1.941 5.833,1.501 6.375,1.501C6.918,1.501 7.357,1.941 7.357,2.483C7.358,3.025 6.918,3.465 6.375,3.465Z" style="fill:rgb(56,112,158);fill-rule:nonzero;"/>
            </g>
        </g>
    </g>
</svg>
