<?xml version="1.0" encoding="UTF-8" standalone="no"?>
<!DOCTYPE svg PUBLIC "-//W3C//DTD SVG 1.1//EN" "http://www.w3.org/Graphics/SVG/1.1/DTD/svg11.dtd">
<svg width="100%" height="100%" viewBox="0 0 276 267" version="1.1" xmlns="http://www.w3.org/2000/svg" xmlns:xlink="http://www.w3.org/1999/xlink" xml:space="preserve" xmlns:serif="http://www.serif.com/" style="fill-rule:evenodd;clip-rule:evenodd;stroke-linejoin:round;stroke-miterlimit:2;">
    <g transform="matrix(1,0,0,1,-342.382,-2836.51)">
        <g transform="matrix(1,0,0,1,0,2160)">
            <g transform="matrix(0.364071,0,0,0.364071,-225.657,676.507)">
                <path d="M2302.5,618.4C2274.7,595.2 2249.2,572.1 2221.4,548.9C2212.1,542 2209.8,537.3 2216.8,525.7C2251.5,463.2 2267.8,398.3 2263.1,326.5C2251.5,143.6 2096.3,0 1908.7,0C1899.4,0 1885.5,0 1871.6,2.3C1667.8,23.1 1524.2,224.7 1568.2,426.2C1621.5,669.4 1892.5,780.6 2103.3,646.2C2112.6,641.6 2117.2,641.6 2124.1,648.5L2214.4,724.9C2230.6,736.5 2237.6,736.5 2251.5,722.6C2270,701.8 2288.6,678.6 2307.1,657.7C2321,641.6 2318.7,632.3 2302.5,618.4ZM1911,569.8C1790.6,569.8 1695.6,472.5 1695.6,352.1C1695.6,236.3 1792.9,139 1911,139C2029.1,139 2126.4,236.3 2126.4,354.4C2128.7,470.2 2029.1,569.8 1911,569.8Z" style="fill:rgb(110,179,63);fill-rule:nonzero;"/>
                <path d="M1911,215.4C1987.4,215.4 2050,277.9 2050,354.4C2050,430.9 1987.5,493.4 1911,493.4C1834.6,493.4 1772,430.9 1772,354.4C1772,275.6 1834.6,215.4 1911,215.4Z" style="fill:rgb(95,96,98);"/>
            </g>
        </g>
    </g>
</svg>
