<?xml version="1.0" encoding="UTF-8" standalone="no"?>
<!DOCTYPE svg PUBLIC "-//W3C//DTD SVG 1.1//EN" "http://www.w3.org/Graphics/SVG/1.1/DTD/svg11.dtd">
<svg width="100%" height="100%" viewBox="0 0 1425 1425" version="1.1" xmlns="http://www.w3.org/2000/svg" xmlns:xlink="http://www.w3.org/1999/xlink" xml:space="preserve" xmlns:serif="http://www.serif.com/" style="fill-rule:evenodd;clip-rule:evenodd;stroke-linecap:round;stroke-linejoin:round;stroke-miterlimit:2;">
    <g transform="matrix(1.03104,0,0,1.03104,-1442.17,-741.944)">
        <g transform="matrix(7.06713,0,0,7.06713,1416.24,881.796)">
            <path d="M148.41,148.999L144.308,148.999L144.308,138.699L154.569,138.699L154.569,141.648L150.467,141.648C149.902,141.648 149.416,141.795 149.009,142.078C148.613,142.372 148.41,142.711 148.41,143.112L148.41,148.999Z" style="fill-rule:nonzero;"/>
        </g>
        <g transform="matrix(7.06713,0,0,7.06713,1416.24,881.796)">
            <path d="M158.682,135.772L162.784,135.772L162.784,138.699L164.84,138.699L164.84,141.648L162.784,141.648C162.784,141.648 162.445,145.016 162.784,145.745C163.01,146.22 164.84,146.011 164.84,146.011L164.84,148.999L162.784,148.999C161.654,148.999 160.693,148.705 159.891,148.135C159.089,147.553 158.682,146.863 158.682,146.062L158.682,141.643L156.625,141.648L156.625,138.699L158.682,138.699L158.682,135.772Z" style="fill-rule:nonzero;"/>
        </g>
        <g transform="matrix(7.06713,0,0,7.06713,1416.24,881.796)">
            <path d="M167.621,148.999L167.621,135.772L171.723,135.772L171.723,138.699L175.836,138.699C176.966,138.699 177.926,138.993 178.729,139.569C179.531,140.157 179.938,140.846 179.938,141.648L179.938,148.999L175.836,148.999L175.836,143.129C175.836,142.722 175.632,142.377 175.226,142.084C174.819,141.801 174.344,141.648 173.779,141.648C173.214,141.648 172.728,141.801 172.321,142.084C171.926,142.377 171.723,142.722 171.723,143.129L171.723,148.999L167.621,148.999Z" style="fill-rule:nonzero;"/>
        </g>
        <g transform="matrix(7.06713,0,0,7.06713,1416.24,881.796)">
            <path d="M146.568,14.707C149.438,14.205 152.196,16.131 152.693,19.002C153.201,21.872 151.269,24.618 148.398,25.121C145.528,25.624 142.782,23.708 142.285,20.838C141.777,17.962 143.698,15.222 146.568,14.707Z" style="fill:rgb(235,171,49);"/>
        </g>
        <g transform="matrix(7.06713,0,0,7.06713,1416.24,881.796)">
            <path d="M99.751,42.388C105.492,40.851 111.402,44.247 112.95,49.987C114.498,55.722 111.085,61.632 105.356,63.174C99.615,64.723 93.702,61.315 92.166,55.581C90.617,49.84 94.024,43.941 99.751,42.388ZM99.751,42.388C105.492,40.851 111.402,44.247 112.95,49.987C114.498,55.722 111.085,61.632 105.356,63.174C99.615,64.723 93.702,61.315 92.166,55.581C90.617,49.84 94.024,43.941 99.751,42.388ZM104.294,41.551C108.102,39.986 104.802,21.686 116.95,15.16C124.103,11.306 132.771,14.685 137.099,16.374M69.011,100.217C64.955,111.025 86.939,123.534 99.785,104.895C107.887,93.131 95.366,71.271 102.407,63.739M146.568,14.707C149.438,14.205 152.196,16.131 152.693,19.002C153.201,21.872 151.269,24.618 148.398,25.121C145.528,25.624 142.782,23.708 142.285,20.838C141.777,17.962 143.698,15.222 146.568,14.707Z" style="fill:none;stroke:rgb(235,171,49);stroke-width:3.54px;"/>
        </g>
        <g transform="matrix(7.06713,0,0,7.06713,1416.24,881.796)">
            <path d="M71.429,78.966C77.165,80.509 80.571,86.419 79.023,92.154C77.475,97.889 71.565,101.295 65.836,99.748C60.09,98.205 56.694,92.295 58.236,86.56C59.779,80.82 65.694,77.418 71.429,78.966ZM71.429,78.966C77.165,80.509 80.571,86.419 79.023,92.154C77.475,97.889 71.565,101.295 65.836,99.748C60.09,98.205 56.694,92.295 58.236,86.56C59.779,80.82 65.694,77.418 71.429,78.966ZM47.755,58.089C49.784,58.366 64.118,42.212 72.96,51.84C79.153,58.564 72.853,77.209 67.582,78.61C67.322,78.678 67.051,78.724 66.768,78.752" style="fill:none;stroke:black;stroke-width:3.54px;"/>
        </g>
        <g transform="matrix(7.06713,0,0,7.06713,1416.24,881.796)">
            <path d="M35.907,52.965C41.738,51.829 47.394,55.648 48.529,61.479C49.665,67.316 45.851,72.955 40.026,74.102C34.189,75.232 28.534,71.424 27.393,65.593C26.262,59.756 30.07,54.112 35.907,52.965ZM35.907,52.965C41.738,51.829 47.394,55.648 48.529,61.479C49.665,67.316 45.851,72.955 40.026,74.102C34.189,75.232 28.534,71.424 27.393,65.593C26.262,59.756 30.07,54.112 35.907,52.965ZM3.074,47.105C1.741,65.373 18.533,73.028 27.709,68.621" style="fill:none;stroke:rgb(179,30,78);stroke-width:3.54px;"/>
        </g>
        <g transform="matrix(7.06713,0,0,7.06713,1416.24,881.796)">
            <path d="M117.436,21.674C146.737,50.213 147.359,97.29 118.814,126.602C90.267,155.915 43.202,156.536 13.889,127.992C11.414,125.58 11.363,121.619 13.77,119.15C16.183,116.675 20.149,116.619 22.624,119.025C46.981,142.744 86.126,142.242 109.854,117.878C133.584,93.504 133.064,54.366 108.701,30.646C84.329,6.911 45.196,7.43 21.46,31.793C19.053,34.269 15.092,34.325 12.617,31.912C10.137,29.505 10.092,25.539 12.499,23.059C41.049,-6.237 88.12,-6.876 117.436,21.674Z" style="fill:rgb(7,76,131);fill-rule:nonzero;"/>
        </g>
        <g transform="matrix(7.06713,0,0,7.06713,1416.24,881.796)">
            <clipPath id="_clip1">
                <path d="M192.425,119.071L184.673,136.021L121.233,106.985L128.996,90.035L192.425,119.071Z"/>
            </clipPath>
            <g clip-path="url(#_clip1)">
                <g>
                    <clipPath id="_clip2">
                        <path d="M193.137,125.41L74.334,-29.522L-14.531,38.619L104.271,193.545L193.137,125.41Z"/>
                    </clipPath>
                    <g clip-path="url(#_clip2)">
                        <path d="M2.436,31.867L183.949,115.206C188.628,117.358 190.685,122.896 188.537,127.574C186.39,132.252 180.853,134.309 176.175,132.156L-5.343,48.823C-10.022,46.676 -12.079,41.127 -9.931,36.46C-7.779,31.777 -2.247,29.714 2.436,31.867Z" style="fill:rgb(7,76,131);fill-rule:nonzero;"/>
                    </g>
                </g>
            </g>
        </g>
    </g>
</svg>
