<?xml version="1.0" encoding="UTF-8" standalone="no"?>
<!DOCTYPE svg PUBLIC "-//W3C//DTD SVG 1.1//EN" "http://www.w3.org/Graphics/SVG/1.1/DTD/svg11.dtd">
<svg width="100%" height="100%" viewBox="0 0 561 292" version="1.1" xmlns="http://www.w3.org/2000/svg" xmlns:xlink="http://www.w3.org/1999/xlink" xml:space="preserve" xmlns:serif="http://www.serif.com/" style="fill-rule:evenodd;clip-rule:evenodd;stroke-linejoin:round;stroke-miterlimit:2;">
    <g transform="matrix(1,0,0,1,-1301.33,-3297.49)">
        <g transform="matrix(1,0,0,1,0,3240)">
            <g transform="matrix(0.225118,0,0,0.225118,1301.33,54.7995)">
                <path d="M2279.67,665.968C2277.45,661.407 2276.54,659.062 2275.37,656.847C2244.1,597.432 2212.96,538.147 2181.43,478.862C2178.3,472.868 2178.69,469.35 2182.99,464.269C2232.63,406.287 2282.01,348.044 2331.53,289.802C2333.22,287.717 2334.78,285.632 2335.43,281.984L2292.05,293.32C2231.98,309.216 2172.04,325.112 2112.11,341.138C2106.5,342.572 2104.03,341.008 2101.16,336.317C2067.03,279.378 2032.89,222.569 1998.62,165.759C1996.8,162.762 1994.97,159.896 1991.19,157.42C1988.46,172.535 1985.59,187.779 1982.98,202.894L1954.45,363.549C1953.41,369.282 1951.97,375.146 1951.45,380.879C1950.93,386.351 1948.19,388.436 1943.11,390C1872.36,412.15 1801.74,434.561 1731.12,456.972C1727.99,458.014 1725,459.187 1721.61,462.184C1779.46,485.116 1837.18,508.179 1895.94,531.502C1893.86,533.195 1892.43,534.498 1890.86,535.541C1854.77,558.864 1818.55,582.187 1782.46,605.771C1778.16,608.637 1774.77,609.028 1769.82,606.813C1726.69,587.399 1683.3,568.376 1640.04,548.961C1620.63,540.362 1603.17,528.765 1589.62,512.218C1558.87,474.562 1564.99,431.825 1605.9,405.765C1619.33,397.166 1634.57,390.781 1649.68,385.83C1719,363.289 1788.45,341.529 1857.9,319.639C1863.76,317.815 1866.37,315.209 1867.54,308.955C1876.79,255.403 1886.43,201.851 1896.08,148.299C1901.29,119.634 1904.02,90.318 1917.97,64.128C1923.31,54.095 1929.69,44.193 1937.38,35.723C1965,5.104 2003.44,3.931 2032.63,33.117C2042.53,43.02 2051,54.616 2058.3,66.473C2090.48,118.852 2122.01,171.623 2153.54,224.393C2157.19,230.647 2160.58,231.95 2167.48,229.995C2245.01,209.278 2322.54,188.822 2400.06,168.235C2416.09,164.065 2432.25,162.502 2448.66,165.499C2484.36,172.144 2500,199.376 2488.01,233.904C2482.54,249.67 2473.03,262.96 2462.34,275.469C2408.27,339.184 2354.2,402.899 2299.86,466.353C2295.43,471.565 2295.3,475.344 2298.43,481.077C2330.88,542.186 2362.93,603.295 2395.11,664.534C2402.8,679.128 2408.66,694.372 2408.92,711.181C2409.31,749.357 2381.3,780.629 2343.38,786.231C2322.14,789.359 2302.34,784.798 2282.41,778.674C2233.8,763.69 2185.2,748.836 2136.47,734.243C2131.91,732.94 2130.22,731.116 2129.44,726.295C2123.83,692.027 2117.71,657.889 2111.85,623.621C2111.72,622.709 2111.98,621.667 2112.11,619.582C2167.48,634.957 2222.47,650.072 2279.67,665.968" style="fill:rgb(226,92,38);"/>
                <path d="M2184.94,1165C2141.16,1164.87 2097.25,1164.74 2053.47,1164.87C2047.74,1164.87 2044.48,1163.18 2041.23,1158.23C1989.37,1079.27 1937.25,1000.31 1885.13,921.479C1883.44,919.004 1881.74,916.528 1878.75,912.358C1867.54,997.572 1856.6,1080.83 1845.65,1164.35L1730.86,1164.35C1732.16,1153.15 1733.34,1142.33 1734.77,1131.65C1745.97,1046.04 1757.18,960.568 1768.52,874.963C1779.2,793.267 1790.01,711.441 1800.83,629.745C1801.09,627.27 1802.78,624.273 1804.74,622.97C1844.22,597.171 1883.83,571.763 1923.44,546.095C1923.96,545.704 1924.87,545.704 1926.83,545.052C1914.84,636.39 1902.98,727.077 1890.99,817.763C1891.52,818.024 1891.91,818.415 1892.43,818.806C1954.58,749.879 2016.73,680.952 2080.32,610.592L2085.27,639.257C2089.7,665.186 2094,691.245 2098.82,717.174C2099.73,722.386 2098.43,725.644 2094.91,729.292C2054.78,771.378 2014.64,813.594 1974.64,855.679C1972.95,857.504 1971.26,859.458 1969.17,861.543C1970.48,863.628 1971.52,865.582 1972.82,867.406L2180.25,1158.49C2181.55,1160.18 2183.25,1161.62 2184.81,1163.18C2184.94,1163.96 2184.94,1164.48 2184.94,1165M824.777,912.749C823.083,903.759 821.78,890.729 817.871,878.481C798.588,819.196 737.869,786.622 674.806,801.346C605.749,817.372 556.366,871.706 549.2,942.196C543.858,994.315 572.002,1044.61 624.251,1063.37C666.337,1078.62 706.729,1072.23 744.384,1049.69C794.158,1019.85 821.259,975.422 824.777,912.749ZM521.447,1133.21C518.059,1158.75 514.802,1182.72 511.675,1206.83C507.505,1238.75 503.336,1270.8 499.296,1302.73C498.775,1306.51 497.733,1308.07 493.694,1308.07C462.162,1307.94 430.63,1307.94 399.098,1307.94C398.447,1307.94 397.665,1307.55 395.971,1307.03C397.926,1291.91 399.75,1276.8 401.704,1261.68C408.61,1208.65 415.646,1155.62 422.682,1102.59C430.76,1042 437.145,981.025 447.438,920.828C465.68,814.115 556.236,722.256 662.428,699.324C723.928,686.033 782.952,692.157 836.634,726.816C890.186,761.345 920.936,811.509 927.972,874.572C937.875,963.695 905.04,1037.7 841.716,1098.94C800.151,1139.2 750.378,1164.74 692.917,1173.34C633.762,1182.2 578.126,1172.43 528.353,1137.51C526.528,1136.21 524.574,1135.17 521.447,1133.21M470.11,626.227C434.8,652.547 400.662,677.955 366.524,703.363C361.052,694.633 356.1,686.033 350.237,677.955C335.383,657.238 316.881,641.733 290.17,639.778C267.89,638.215 248.736,645.511 233.622,662.059C220.071,676.782 218.247,697.63 230.885,714.308C244.827,732.549 260.202,749.879 275.708,766.817C301.637,794.831 328.608,821.802 354.407,850.077C377.86,875.745 396.492,904.541 402.225,939.59C409.131,981.285 400.792,1021.03 380.987,1057.77C344.504,1125.65 286.913,1165 211.08,1177.25C177.594,1182.72 144.108,1181.55 111.404,1172.04C68.015,1159.27 37.786,1130.74 18.372,1090.6C11.466,1076.4 6.254,1061.42 0,1046.17C38.047,1025.85 74.921,1006.04 112.446,985.976C113.749,989.103 114.661,991.709 115.834,994.185C122.218,1006.95 127.43,1020.5 135.378,1032.36C158.832,1067.28 196.748,1077.84 235.185,1060.64C245.088,1056.21 254.599,1049.95 262.678,1042.79C287.434,1020.76 292.125,990.146 273.753,962.523C263.199,946.626 250.039,932.424 237.14,918.092C206.52,884.084 174.597,851.119 144.629,816.46C124.042,792.486 109.97,764.602 105.54,732.549C100.719,697.63 107.625,664.665 125.866,635.218C171.079,562.121 236.749,524.075 323.657,527.202C373.169,529.026 412.649,552.219 443.269,590.656C452.39,601.992 460.859,613.849 470.11,626.227M1309.48,1018.81C1303.75,1062.85 1298.28,1104.68 1292.67,1146.5C1292.41,1148.59 1290.72,1151.45 1288.89,1152.37C1203.42,1191.98 1090.71,1186.5 1020.48,1106.63C982.697,1063.76 966.931,1012.95 969.276,956.399C974.749,825.451 1083.29,711.05 1213.19,695.154C1289.02,685.773 1355.61,706.36 1407.07,765.254C1442.12,805.385 1458.28,853.334 1455.93,906.235C1454.37,941.154 1448.9,975.943 1444.47,1010.73C1438.34,1059.98 1431.57,1109.24 1425.05,1158.49C1424.79,1160.18 1424.53,1162.01 1424.01,1164.22L1321.73,1164.22C1323.03,1152.89 1324.33,1141.81 1325.77,1130.74C1333.19,1073.8 1341.27,1017.12 1347.79,960.047C1351.83,924.606 1349.35,889.296 1333.06,856.461C1315.87,821.542 1286.81,803.04 1248.76,799C1169.93,790.661 1095.01,845.386 1078.2,922.912C1067.13,974.119 1084.59,1023.11 1125.37,1050.34C1165.11,1076.79 1207.72,1076.79 1250.98,1059.72C1273,1051.12 1291.63,1037.31 1309.48,1018.81M1740.24,705.057C1735.55,740.497 1730.99,775.417 1726.3,811.118C1704.67,811.118 1683.43,810.988 1662.19,811.118C1644.99,811.248 1629.36,822.324 1624.15,838.35C1622.06,844.604 1621.41,851.38 1620.5,857.895C1609.68,939.33 1599,1020.76 1588.32,1102.33C1585.58,1122.92 1582.97,1143.37 1580.24,1164.22L1473.78,1164.22C1475.74,1148.59 1477.69,1133.34 1479.65,1118.23C1486.55,1065.46 1493.46,1012.69 1500.5,959.917C1506.62,914.313 1511.96,868.449 1519.13,822.975C1528.64,761.996 1589.36,707.793 1650.99,705.187C1680.43,704.014 1709.88,705.057 1740.24,705.057" style="fill:rgb(242,242,242);"/>
                <path d="M2310.55,1164.35L2310.55,1119.4L2310.29,1119.4L2292.7,1164.35L2287.1,1164.35L2269.51,1119.4L2269.24,1119.4L2269.24,1164.35L2260.39,1164.35L2260.39,1110.54L2274.07,1110.54L2290.09,1151.45L2305.86,1110.54L2319.41,1110.54L2319.41,1164.35L2310.55,1164.35ZM2232.37,1117.71L2232.37,1164.35L2223.51,1164.35L2223.51,1117.71L2206.7,1117.71L2206.7,1110.54L2249.31,1110.54L2249.31,1117.71L2232.37,1117.71ZM612.785,550.655L639.235,550.655L632.981,510.654L612.785,550.655ZM643.274,576.454L599.364,576.454L585.422,603.816L554.282,603.816L622.948,475.604L652.916,475.604L676.239,603.816L647.444,603.816L643.274,576.454ZM800.542,501.403L784.906,501.403L779.695,530.98L795.33,530.98C804.712,530.98 812.269,524.726 812.269,513.13C812.269,505.312 807.448,501.403 800.542,501.403ZM762.626,475.604L803.669,475.604C825.168,475.604 840.282,488.373 840.282,510.524C840.282,538.277 820.738,556.909 792.724,556.909L775.004,556.909L766.665,603.816L739.954,603.816L762.626,475.604ZM931.229,550.655L957.68,550.655L951.425,510.654L931.229,550.655ZM961.849,576.454L917.939,576.454L903.997,603.816L872.857,603.816L941.523,475.604L971.491,475.604L994.814,603.816L966.019,603.816L961.849,576.454ZM1135.4,599.256C1126.41,603.425 1116.38,605.901 1106.35,605.901C1072.47,605.901 1051.1,580.493 1051.1,548.57C1051.1,507.788 1085.37,473.52 1126.15,473.52C1136.32,473.52 1145.57,475.995 1153.12,480.165L1149.35,510.915C1143.74,504.661 1134.62,500.361 1123.29,500.361C1099.96,500.361 1079.12,521.469 1079.12,545.965C1079.12,564.597 1090.84,579.19 1109.35,579.19C1120.68,579.19 1131.63,574.89 1138.92,568.766L1135.4,599.256ZM1299.06,552.088L1243.29,552.088L1234.17,603.686L1207.46,603.686L1230.13,475.474L1256.84,475.474L1247.85,526.159L1303.62,526.159L1312.61,475.474L1339.45,475.474L1316.78,603.686L1290.07,603.686L1299.06,552.088ZM1397.3,603.816L1419.84,475.604L1490.98,475.604L1486.42,501.403L1442.12,501.403L1437.56,526.29L1478.21,526.29L1473.65,552.088L1432.87,552.088L1428.31,577.887L1472.61,577.887L1468.05,603.686L1397.3,603.816Z" style="fill:rgb(242,242,242);fill-rule:nonzero;"/>
            </g>
        </g>
    </g>
</svg>
