<?xml version="1.0" encoding="UTF-8" standalone="no"?>
<!DOCTYPE svg PUBLIC "-//W3C//DTD SVG 1.1//EN" "http://www.w3.org/Graphics/SVG/1.1/DTD/svg11.dtd">
<svg width="100%" height="100%" viewBox="0 0 328 171" version="1.1" xmlns="http://www.w3.org/2000/svg" xmlns:xlink="http://www.w3.org/1999/xlink" xml:space="preserve" xmlns:serif="http://www.serif.com/" style="fill-rule:evenodd;clip-rule:evenodd;stroke-linejoin:round;stroke-miterlimit:2;">
    <g transform="matrix(1,0,0,1,-594.424,-2678.74)">
        <g transform="matrix(1,0,0,1,0,2160)">
            <g transform="matrix(0.844138,0,0,0.844138,758.234,603.932)">
                <g transform="matrix(1,0,0,1,-194.056,-100.925)">
                    <clipPath id="_clip1">
                        <rect x="0" y="0" width="388.112" height="201.85"/>
                    </clipPath>
                    <g clip-path="url(#_clip1)">
                        <g transform="matrix(0.125,0,0,-0.125,0,201.85)">
                            <g id="g4163">
                                <g id="g4165">
                                    <path id="path4167" d="M2840.22,800.078C2837.54,805.801 2836.33,808.688 2834.87,811.457C2795.97,885.414 2757.16,959.426 2717.91,1033.2C2713.95,1040.61 2714.44,1045.02 2719.86,1051.35C2781.73,1123.63 2843.28,1196.2 2904.9,1268.7C2907.06,1271.24 2909.01,1273.96 2909.84,1278.48C2891.82,1273.77 2873.8,1269.12 2855.8,1264.35C2781.04,1244.54 2706.26,1224.79 2631.57,1204.71C2624.6,1202.84 2621.44,1204.88 2617.98,1210.65C2575.53,1281.56 2532.84,1352.32 2490.2,1423.11C2487.99,1426.79 2485.62,1430.36 2480.93,1433.45C2477.5,1414.56 2474.01,1395.68 2470.65,1376.78C2458.77,1310.06 2446.93,1243.32 2435.09,1176.59C2433.8,1169.39 2432.02,1162.22 2431.41,1154.96C2430.81,1148.07 2427.28,1145.53 2421.05,1143.57C2332.94,1115.91 2244.92,1087.98 2156.9,1060.08C2153.03,1058.86 2149.26,1057.28 2145.11,1053.51C2217.12,1024.89 2289.13,996.273 2362.25,967.215C2359.59,965.102 2357.86,963.477 2355.91,962.207C2310.89,933.078 2265.8,904.066 2220.89,874.785C2215.52,871.285 2211.25,870.789 2205.21,873.508C2151.44,897.723 2097.46,921.48 2043.61,945.531C2019.43,956.328 1997.68,970.672 1980.74,991.387C1942.45,1038.23 1950.01,1091.52 2001.03,1124.07C2017.73,1134.72 2036.68,1142.71 2055.59,1148.88C2141.88,1176.99 2228.5,1204.1 2315.08,1231.3C2322.33,1233.57 2325.7,1236.82 2327.05,1244.68C2338.58,1311.47 2350.55,1378.19 2362.58,1444.88C2369.02,1480.54 2372.44,1517.12 2389.8,1549.8C2396.46,1562.36 2404.45,1574.67 2413.95,1585.2C2448.31,1623.34 2496.28,1624.82 2532.62,1588.48C2544.88,1576.22 2555.43,1561.75 2564.54,1546.91C2604.58,1481.64 2643.96,1415.95 2683.13,1350.15C2687.76,1342.37 2691.94,1340.8 2700.51,1343.1C2797.05,1368.98 2893.69,1394.46 2990.33,1419.99C3010.26,1425.25 3030.42,1427.19 3050.88,1423.36C3095.42,1415.02 3114.89,1381.11 3099.82,1338.09C3092.96,1318.48 3081.13,1301.93 3067.82,1286.29C3000.39,1206.99 2933.07,1127.6 2865.41,1048.5C2859.88,1042.04 2859.76,1037.36 2863.59,1030.14C2903.95,954.063 2943.96,877.801 2984.12,801.613C2993.73,783.371 3001.06,764.453 3001.28,743.512C3001.76,695.883 2966.93,656.906 2919.6,649.969C2893.09,646.074 2868.46,651.738 2843.62,659.41C2783.09,678.121 2722.45,696.52 2661.78,714.766C2656.16,716.449 2654.01,718.648 2653.02,724.707C2646.04,767.402 2638.43,810.004 2631.07,852.641C2630.86,853.813 2631.21,855.078 2631.39,857.688C2700.46,838.633 2768.93,819.746 2840.22,800.078" style="fill:rgb(226,90,28);"/>
                                    <path id="path4169" d="M2722.2,178.23C2667.61,178.328 2613.02,178.578 2558.42,178.359C2551.22,178.34 2547.13,180.441 2543.11,186.57C2478.48,285.012 2413.56,383.262 2348.69,481.551C2346.62,484.68 2344.42,487.699 2340.75,492.961C2326.78,386.801 2313.13,283.012 2299.45,178.961L2156.49,178.961C2158.16,192.891 2159.63,206.352 2161.39,219.762C2175.35,326.352 2189.36,432.941 2203.37,539.52C2216.75,641.359 2230.09,743.199 2243.67,845.02C2244.07,848.059 2246.09,851.895 2248.57,853.508C2297.76,885.582 2347.12,917.379 2396.48,949.199C2397.2,949.668 2398.2,949.723 2400.75,950.445C2385.82,836.574 2371,723.594 2356.18,610.609C2356.77,610.211 2357.35,609.809 2357.94,609.398C2435.38,695.242 2512.83,781.086 2591.94,868.77C2594.23,855.57 2596.21,844.273 2598.15,832.969C2603.7,800.602 2609.02,768.188 2614.96,735.887C2616.16,729.379 2614.43,725.328 2610.09,720.801C2560.01,668.391 2510.12,615.801 2460.19,563.262C2458.01,560.969 2455.92,558.59 2453.44,555.871C2455.03,553.32 2456.39,550.871 2458,548.602C2544.13,427.711 2630.26,306.84 2716.46,186C2718.02,183.809 2720.27,182.09 2722.2,180.148L2722.2,178.23" style="fill:rgb(242,242,242);"/>
                                    <path id="path4171" d="M1027.64,492.488C1025.46,503.629 1023.9,519.988 1018.95,535.27C995.012,609.141 919.215,649.648 840.762,631.387C754.699,611.359 693.195,543.699 684.297,455.879C677.711,390.922 712.691,328.34 777.73,304.852C830.129,285.922 880.578,293.84 927.418,321.93C989.504,359.18 1023.18,414.48 1027.64,492.488ZM649.703,217.922C645.457,186.141 641.406,156.191 637.465,126.219C632.23,86.379 627.008,46.531 621.992,6.672C621.406,2.02 619.996,-0.031 615,0C575.73,0.16 536.461,0.121 497.195,0.18C496.301,0.18 495.406,0.672 493.277,1.27C495.652,20.078 497.961,38.941 500.43,57.789C509.094,123.871 517.738,189.961 526.531,256.031C536.586,331.578 544.551,407.488 557.426,482.551C580.23,615.465 692.988,730.008 825.305,758.527C902.016,775.074 975.43,767.418 1042.4,724.254C1109.19,681.207 1147.5,618.738 1156.23,540.16C1168.58,429.059 1127.69,336.828 1048.77,260.531C996.977,210.441 934.965,178.609 863.438,167.852C789.754,156.738 720.492,169.031 658.336,212.469C656.051,214.059 653.613,215.449 649.703,217.922" style="fill:rgb(242,242,242);"/>
                                    <path id="path4173" d="M585.711,849.512C541.672,816.727 499.215,785.125 456.574,753.383C449.703,764.227 443.547,775.027 436.359,785.078C417.859,810.93 394.883,830.246 361.465,832.59C333.672,834.539 309.902,825.383 290.984,804.891C274.063,786.566 271.852,760.512 287.664,739.816C305.07,717.035 324.121,695.422 343.574,674.332C375.82,639.371 409.527,605.75 441.566,570.602C470.719,538.629 493.957,502.75 501.133,459.031C509.668,407.059 499.301,357.559 474.715,311.879C429.219,227.352 357.574,178.309 262.992,162.961C221.223,156.191 179.566,157.539 138.809,169.539C84.719,185.461 47.07,220.91 22.859,270.969C14.305,288.668 7.762,307.34 0,326.309C47.356,351.648 93.356,376.27 140.031,401.25C141.66,397.359 142.797,394.121 144.316,391.09C152.273,375.16 158.789,358.238 168.648,343.578C197.883,300.109 245.105,286.879 293.012,308.371C305.316,313.891 317.168,321.68 327.262,330.629C358.133,358.031 363.922,396.18 341.07,430.66C327.941,450.469 311.52,468.23 295.535,485.98C257.332,528.41 217.574,569.48 180.254,612.672C154.527,642.441 137.047,677.16 131.516,717.035C125.473,760.57 134.18,801.652 156.836,838.305C213.16,929.41 295.008,976.805 403.266,972.879C464.984,970.641 514.129,941.781 552.277,893.828C563.566,879.645 574.145,864.895 585.711,849.512" style="fill:rgb(242,242,242);"/>
                                    <path id="path4175" d="M1631.44,360.398C1624.26,305.52 1617.49,253.359 1610.45,201.238C1610.09,198.602 1608.02,195.012 1605.77,193.961C1499.21,144.609 1358.89,151.5 1271.38,250.879C1224.36,304.27 1204.63,367.641 1207.58,438.141C1214.4,601.34 1349.71,743.809 1511.52,763.715C1606.06,775.348 1688.97,749.813 1753.02,676.375C1796.64,626.344 1816.82,566.602 1813.84,500.672C1811.88,457.121 1805.05,413.762 1799.63,370.41C1791.95,309.012 1783.56,247.691 1775.45,186.34C1775.16,184.16 1774.72,182 1774.23,179.23L1646.75,179.23C1648.45,193.328 1650,207.129 1651.79,220.898C1661.02,291.762 1671.17,362.512 1679.26,433.5C1684.3,477.711 1681.13,521.59 1660.91,562.539C1639.4,606.059 1603.34,629.078 1555.91,634.109C1457.75,644.5 1364.36,576.289 1343.42,479.691C1329.59,415.922 1351.39,354.801 1402.17,321.012C1451.67,288.078 1504.68,287.969 1558.62,309.328C1585.97,320.148 1609.27,337.281 1631.44,360.398" style="fill:rgb(242,242,242);"/>
                                    <path id="path4177" d="M2168.23,751.324C2162.41,707.125 2156.68,663.586 2150.82,619.145C2123.87,619.145 2097.44,619.301 2071.02,619.09C2049.61,618.922 2030.07,605.102 2023.64,585.109C2021.12,577.289 2020.19,568.922 2019.11,560.719C2005.7,459.23 1992.39,357.738 1979.08,256.238C1975.72,230.648 1972.45,205.039 1969.09,179.059L1836.4,179.059C1838.88,198.578 1841.22,217.461 1843.69,236.32C1852.32,302.102 1860.95,367.859 1869.69,433.609C1877.24,490.512 1883.97,547.539 1892.86,604.23C1904.78,680.227 1980.39,747.715 2057.08,751.051C2093.67,752.641 2130.39,751.324 2168.23,751.324" style="fill:rgb(242,242,242);"/>
                                    <path id="path4179" d="M2878.63,179.059L2878.63,235.07L2878.31,235.07L2856.33,179.059L2849.32,179.059L2827.34,235.07L2827.01,235.07L2827.01,179.059L2815.94,179.059L2815.94,246.148L2833.03,246.148L2853.06,195.18L2872.77,246.148L2889.71,246.148L2889.71,179.059L2878.63,179.059ZM2781.25,237.18L2781.25,179.059L2770.18,179.059L2770.18,237.18L2749.17,237.18L2749.17,246.148L2802.26,246.148L2802.26,237.18L2781.25,237.18" style="fill:rgb(242,242,242);fill-rule:nonzero;"/>
                                    <path id="path4181" d="M763.457,943.719L796.355,943.719L788.598,993.527L763.457,943.719ZM801.52,911.539L746.785,911.539L729.398,877.48L690.637,877.48L776.137,1037.21L813.504,1037.21L842.617,877.48L806.684,877.48L801.52,911.539" style="fill:rgb(242,242,242);fill-rule:nonzero;"/>
                                    <path id="path4183" d="M997.352,1005.04L977.852,1005.04L971.289,968.164L990.773,968.164C1002.53,968.164 1011.93,975.902 1011.93,990.477C1011.93,1000.11 1006.04,1005.04 997.352,1005.04ZM950.137,1037.21L1001.36,1037.21C1028.14,1037.21 1046.92,1021.24 1046.92,993.766C1046.92,959.23 1022.49,935.984 987.723,935.984L965.648,935.984L955.301,877.48L921.961,877.48L950.137,1037.21" style="fill:rgb(242,242,242);fill-rule:nonzero;"/>
                                    <path id="path4185" d="M1160.22,943.719L1193.12,943.719L1185.36,993.527L1160.22,943.719ZM1198.28,911.539L1143.55,911.539L1126.16,877.48L1087.4,877.48L1172.9,1037.21L1210.26,1037.21L1239.38,877.48L1203.45,877.48L1198.28,911.539" style="fill:rgb(242,242,242);fill-rule:nonzero;"/>
                                    <path id="path4187" d="M1414.67,883.125C1403.4,877.961 1390.96,874.891 1378.5,874.891C1336.23,874.891 1309.67,906.613 1309.67,946.313C1309.67,997.059 1352.42,1039.81 1403.17,1039.81C1415.85,1039.81 1427.37,1036.76 1436.76,1031.59L1432.06,993.289C1425.02,1001.05 1413.73,1006.45 1399.64,1006.45C1370.52,1006.45 1344.68,980.129 1344.68,949.602C1344.68,926.352 1359.24,908.246 1382.27,908.246C1396.37,908.246 1409.98,913.652 1419.14,921.168L1414.67,883.125" style="fill:rgb(242,242,242);fill-rule:nonzero;"/>
                                    <path id="path4189" d="M1618.52,941.848L1548.99,941.848L1537.7,877.48L1504.36,877.48L1532.54,1037.21L1565.9,1037.21L1554.63,974.027L1624.16,974.027L1635.42,1037.21L1668.78,1037.21L1640.61,877.48L1607.25,877.48L1618.52,941.848" style="fill:rgb(242,242,242);fill-rule:nonzero;"/>
                                    <path id="path4191" d="M1740.85,877.48L1769.02,1037.21L1857.59,1037.21L1851.95,1005.04L1796.74,1005.04L1791.12,974.027L1841.84,974.027L1836.22,941.848L1785.47,941.848L1779.83,909.664L1835.04,909.664L1829.4,877.48L1740.85,877.48" style="fill:rgb(242,242,242);fill-rule:nonzero;"/>
                                </g>
                            </g>
                        </g>
                    </g>
                </g>
            </g>
        </g>
    </g>
</svg>
