<?xml version="1.0" encoding="UTF-8" standalone="no"?>
<!DOCTYPE svg PUBLIC "-//W3C//DTD SVG 1.1//EN" "http://www.w3.org/Graphics/SVG/1.1/DTD/svg11.dtd">
<svg width="100%" height="100%" viewBox="0 0 259 262" version="1.1" xmlns="http://www.w3.org/2000/svg" xmlns:xlink="http://www.w3.org/1999/xlink" xml:space="preserve" xmlns:serif="http://www.serif.com/" style="fill-rule:evenodd;clip-rule:evenodd;stroke-linejoin:round;stroke-miterlimit:2;">
    <g transform="matrix(1,0,0,1,-346.353,-2839.04)">
        <g transform="matrix(1,0,0,1,0,2160)">
            <g transform="matrix(1,0,0,0.897665,0,-1856.06)">
                <path d="M604.84,2896.1C604.84,2856.37 575.884,2824.11 540.218,2824.11L410.974,2824.11C375.309,2824.11 346.353,2856.37 346.353,2896.1L346.353,3043.9C346.353,3083.63 375.309,3115.89 410.974,3115.89L540.218,3115.89C575.884,3115.89 604.84,3083.63 604.84,3043.9L604.84,2896.1Z" style="fill:rgb(119,181,57);"/>
            </g>
            <g transform="matrix(17.9308,0,0,17.9308,-304.393,375.178)">
                <path d="M40,20.5L40,22L46,24L40,26.601L40,28L47,25L47,23L40,20.5Z" style="fill:rgb(242,242,242);stroke:rgb(242,242,242);stroke-width:0.06px;"/>
            </g>
        </g>
    </g>
</svg>
