<?xml version="1.0" encoding="UTF-8" standalone="no"?>
<!DOCTYPE svg PUBLIC "-//W3C//DTD SVG 1.1//EN" "http://www.w3.org/Graphics/SVG/1.1/DTD/svg11.dtd">
<svg width="100%" height="100%" viewBox="0 0 296 292" version="1.1" xmlns="http://www.w3.org/2000/svg" xmlns:xlink="http://www.w3.org/1999/xlink" xml:space="preserve" xmlns:serif="http://www.serif.com/" style="fill-rule:evenodd;clip-rule:evenodd;stroke-linejoin:round;stroke-miterlimit:2;">
    <g transform="matrix(1,0,0,1,-1408.18,-3634.11)">
        <g transform="matrix(1,0,0,1,0,3240)">
            <g transform="matrix(0.11828,0,0,0.11828,1408.18,394.102)">
                <path d="M1181.59,1666.75L1318.41,1666.75L1318.41,1293.62L1662.52,1293.62L1662.52,1160.95L1318.41,1160.95L1318.41,787.812L1181.59,787.812L1181.59,1160.95L841.625,1160.95L841.625,1293.62L1181.59,1293.62L1181.59,1666.75Z" style="fill:rgb(232,118,45);fill-rule:nonzero;"/>
                <path d="M547.264,2205.72L663.35,2205.72L663.35,1874.05L970.149,1874.05L970.149,1770.4L663.35,1770.4L663.35,1434.58L547.264,1434.58L547.264,1770.4L240.464,1770.4L240.464,1874.05L547.264,1874.05L547.264,2205.72Z" style="fill:rgb(199,32,55);fill-rule:nonzero;"/>
                <path d="M1836.65,1007.55L1952.74,1007.55L1952.74,675.871L2263.68,675.871L2263.68,576.369L1952.74,576.369L1952.74,240.548L1836.65,240.548L1836.65,576.369L1529.85,576.369L1529.85,675.871L1836.65,675.871L1836.65,1007.55Z" style="fill:rgb(91,135,155);fill-rule:nonzero;"/>
                <path d="M1202.32,2466.92L1301.82,2466.92L1301.82,2230.6L1513.27,2230.6L1513.27,2143.53L1301.82,2143.53L1301.82,1907.22L1202.32,1907.22L1202.32,2143.53L995.025,2143.53L995.025,2230.6L1202.32,2230.6L1202.32,2466.92Z" style="fill:rgb(92,102,146);fill-rule:nonzero;"/>
                <path d="M551.41,1007.55L659.204,1007.55L659.204,671.726L970.149,671.726L970.149,576.369L659.204,576.369L659.204,240.548L551.41,240.548L551.41,576.369L240.464,576.369L240.464,671.726L551.41,671.726L551.41,1007.55Z" style="fill:rgb(235,145,41);fill-rule:nonzero;"/>
                <path d="M2189.05,1505.06L2288.56,1505.06L2288.56,1272.89L2500,1272.89L2500,1181.68L2288.56,1181.68L2288.56,949.503L2189.05,949.503L2189.05,1181.68L1981.76,1181.68L1981.76,1272.89L2189.05,1272.89L2189.05,1505.06Z" style="fill:rgb(92,102,146);fill-rule:nonzero;"/>
                <path d="M1836.65,2205.72L1952.74,2205.72L1952.74,1874.05L2263.68,1874.05L2263.68,1770.4L1952.74,1770.4L1952.74,1434.58L1836.65,1434.58L1836.65,1770.4L1529.85,1770.4L1529.85,1874.05L1836.65,1874.05L1836.65,2205.72Z" style="fill:rgb(31,69,126);"/>
                <path d="M1496.68,298.591L1496.68,228.11L1289.39,228.11L1289.39,0.084L1214.76,0.084L1214.76,228.11L1007.46,228.11L1007.46,298.591L1214.76,298.591L1214.76,526.618L1289.39,526.618L1289.39,298.591L1496.68,298.591ZM207.297,1488.48L281.924,1488.48L281.924,1260.45L489.221,1260.45L489.221,1189.97L281.924,1189.97L281.924,966.087L207.297,966.087L207.297,1189.97L0,1189.97L0,1264.6L207.297,1260.45L207.297,1488.48Z" style="fill:rgb(113,153,166);fill-rule:nonzero;"/>
            </g>
        </g>
    </g>
</svg>
