<?xml version="1.0" encoding="UTF-8" standalone="no"?>
<!DOCTYPE svg PUBLIC "-//W3C//DTD SVG 1.1//EN" "http://www.w3.org/Graphics/SVG/1.1/DTD/svg11.dtd">
<svg width="100%" height="100%" viewBox="0 0 305 292" version="1.1" xmlns="http://www.w3.org/2000/svg" xmlns:xlink="http://www.w3.org/1999/xlink" xml:space="preserve" xmlns:serif="http://www.serif.com/" style="fill-rule:evenodd;clip-rule:evenodd;stroke-linejoin:round;stroke-miterlimit:2;">
    <g transform="matrix(1,0,0,1,-1305.2,-2824.11)">
        <g transform="matrix(1,0,0,1,0,2160)">
            <g transform="matrix(0.36594,0,0,0.338808,1494.28,1052.63)">
                <g transform="matrix(1.62467,0,0,1.75477,-516.686,-1165.37)">
                    <path d="M201.302,49.754L9.302,74.693C3.949,75.384 -0.044,79.963 0,85.36L0,234.693C0,240.584 4.776,245.36 10.667,245.36L202.667,245.36C208.558,245.36 213.334,240.584 213.334,234.693L213.334,60.314C213.33,57.25 212.009,54.336 209.707,52.314C207.388,50.32 204.339,49.391 201.302,49.754Z" style="fill:rgb(244,67,54);fill-rule:nonzero;"/>
                </g>
                <g transform="matrix(1.62467,0,0,1.75477,-516.686,-1165.37)">
                    <path d="M508.374,13.36C506.088,11.3 503.024,10.328 499.969,10.693L243.969,44.08C238.617,44.771 234.623,49.35 234.668,54.747L234.668,234.694C234.668,240.585 239.444,245.361 245.335,245.361L501.335,245.361C507.226,245.361 512.002,240.585 512.002,234.694L512.002,21.36C511.997,18.296 510.675,15.382 508.374,13.36Z" style="fill:rgb(76,175,80);fill-rule:nonzero;"/>
                </g>
                <g transform="matrix(1.62467,0,0,1.75477,-516.686,-1165.37)">
                    <path d="M202.667,266.693L10.667,266.693C4.776,266.693 0,271.469 0,277.36L0,426.693C-0.044,432.09 3.949,436.669 9.301,437.36L201.301,462.405C201.756,462.436 202.212,462.436 202.666,462.405C208.557,462.405 213.333,457.629 213.333,451.738L213.333,277.36C213.334,271.469 208.558,266.693 202.667,266.693Z" style="fill:rgb(33,150,243);fill-rule:nonzero;"/>
                </g>
                <g transform="matrix(1.62467,0,0,1.75477,-516.686,-1165.37)">
                    <path d="M501.334,266.693L245.334,266.693C239.443,266.693 234.667,271.469 234.667,277.36L234.667,457.307C234.623,462.704 238.616,467.283 243.968,467.974L499.968,501.361C500.423,501.392 500.879,501.392 501.333,501.361C507.224,501.361 512,496.585 512,490.694L512,277.36C512,271.469 507.225,266.693 501.334,266.693Z" style="fill:rgb(255,193,7);fill-rule:nonzero;"/>
                </g>
            </g>
        </g>
    </g>
</svg>
